<svg xmlns="http://www.w3.org/2000/svg" viewBox="0 0 500 500"><g id="freepik--background-complete--inject-75"><path d="M453.88,293.21l-13.12.28-6.66.11c-2.23,0-4.47,0-6.7.06H427v-.45L426.9,282v-.5h.5l13.24.07c4.41,0,8.83.11,13.24.16h.28V282c0,1.9-.08,3.79-.13,5.66Zm0,0-.14-5.65c-.05-1.86-.11-3.71-.13-5.54l.27.28c-4.41.05-8.83.15-13.24.16l-13.24.06.5-.5,0,11.19-.45-.44c2.18,0,4.36,0,6.55.05l6.58.11Z" style="fill:#ebebeb"></path><path d="M439.11,307.32,426,307.6l-6.66.11c-2.22.05-4.46,0-6.69.06h-.44v-.45l-.05-11.19v-.5h.5l13.24.07c4.41,0,8.83.11,13.24.16h.27v.27c0,1.9-.08,3.79-.13,5.66Zm0,0-.14-5.65c-.05-1.86-.11-3.71-.13-5.54l.27.28c-4.41,0-8.83.15-13.24.16l-13.24.06.5-.5-.06,11.19-.44-.44c2.18,0,4.36,0,6.54.05l6.58.11Z" style="fill:#ebebeb"></path><path d="M468.65,307.32l-13.12.28-6.66.11c-2.23.05-4.47,0-6.7.06h-.44v-.45l-.06-11.19v-.5h.5l13.24.07c4.42,0,8.83.11,13.24.16h.28v.27c0,1.9-.09,3.79-.14,5.66Zm0,0-.14-5.65c0-1.86-.11-3.71-.13-5.54l.27.28c-4.41,0-8.82.15-13.24.16l-13.24.06.5-.5-.05,11.19-.45-.44c2.18,0,4.36,0,6.55.05l6.58.11Z" style="fill:#ebebeb"></path><path d="M64.47,271.16l-13.12.28-6.66.11c-2.23.05-4.47,0-6.7.06h-.44v-.45L37.49,260v-.5H38l13.24.06c4.42,0,8.83.12,13.24.17h.28V260c0,1.9-.09,3.79-.13,5.66Zm0,0-.14-5.65c0-1.87-.11-3.71-.13-5.54l.27.27c-4.41.06-8.82.16-13.24.17L38,260.47l.5-.5-.05,11.19-.45-.44c2.18,0,4.36,0,6.55,0l6.58.11Z" style="fill:#ebebeb"></path><path d="M94,271.16l-13.13.28-6.66.11c-2.22.05-4.46,0-6.69.06h-.45v-.45L67,260v-.5h.51l13.24.06c4.41,0,8.82.12,13.24.17h.27V260c0,1.9-.09,3.79-.13,5.66Zm0,0-.15-5.65c0-1.87-.11-3.71-.13-5.54l.28.27c-4.42.06-8.83.16-13.24.17l-13.24.06.5-.5L68,271.16l-.44-.44c2.18,0,4.35,0,6.54,0l6.58.11Z" style="fill:#ebebeb"></path><path d="M145,60.5l-13.12.28-6.66.11c-2.23,0-4.46,0-6.7.06H118V60.5L118,49.31v-.5h.5l13.24.06c4.42,0,8.83.12,13.24.17h.28v.27c0,1.9-.09,3.79-.13,5.65Zm0,0-.14-5.65c0-1.87-.11-3.71-.13-5.54l.27.27c-4.41.06-8.82.16-13.24.17l-13.24.06.5-.5,0,11.19-.45-.44c2.19,0,4.36,0,6.55,0l6.58.11Z" style="fill:#ebebeb"></path><path d="M130.19,74.61l-13.12.28-6.66.11c-2.23,0-4.47,0-6.7.06h-.44v-.45l-.06-11.19v-.5h.5L117,63c4.42,0,8.83.12,13.24.17h.28v.27c0,1.9-.09,3.79-.14,5.65Zm0,0L130.05,69c0-1.87-.11-3.71-.13-5.54l.27.27c-4.41.06-8.82.16-13.24.17l-13.24.06.5-.5,0,11.19-.45-.44c2.18,0,4.36,0,6.55,0l6.58.11Z" style="fill:#ebebeb"></path><path d="M159.74,74.61l-13.13.28L140,75c-2.23,0-4.46,0-6.69.06h-.45v-.45l-.05-11.19v-.5h.51L146.5,63c4.41,0,8.82.12,13.24.17H160v.27c0,1.9-.09,3.79-.13,5.65Zm0,0L159.59,69c0-1.87-.11-3.71-.13-5.54l.28.27c-4.42.06-8.83.16-13.24.17l-13.24.06.5-.5-.06,11.19-.44-.44c2.18,0,4.35,0,6.54,0l6.58.11Z" style="fill:#ebebeb"></path><path d="M439.23,62.23l-13.13.28-6.66.11c-2.22.05-4.46,0-6.69.05h-.45v-.45L412.25,51v-.5h.5L426,50.6c4.41,0,8.82.11,13.24.17h.27V51c0,1.9-.08,3.79-.13,5.65Zm0,0-.14-5.65c0-1.87-.12-3.71-.13-5.54l.27.27c-4.42,0-8.83.16-13.24.17l-13.24.06.5-.5-.06,11.19-.44-.45c2.18,0,4.36,0,6.54.06l6.58.11Z" style="fill:#ebebeb"></path><path d="M454,76.34l-13.13.28-6.66.11c-2.22,0-4.46,0-6.69,0h-.44v-.45L427,65.15v-.5h.5l13.24.06c4.41,0,8.83.11,13.24.17h.28v.27c0,1.9-.08,3.79-.13,5.65Zm0,0-.14-5.66c-.05-1.86-.11-3.7-.13-5.53l.27.27c-4.41,0-8.83.16-13.24.17l-13.24.06.5-.5L428,76.34l-.44-.45c2.18,0,4.36,0,6.54.06l6.58.11Z" style="fill:#ebebeb"></path><path d="M72.48,62.24l-13.12.28-6.67.11c-2.22,0-4.46,0-6.69.06h-.44v-.45l0-11.19v-.5H46l13.24.06c4.41,0,8.83.12,13.24.17h.28v.27c0,1.9-.08,3.79-.13,5.65Zm0,0-.14-5.65c0-1.87-.11-3.71-.13-5.54l.27.27c-4.41.06-8.83.16-13.24.17L46,51.55l.5-.5,0,11.19L46,61.8c2.18,0,4.36,0,6.55.05l6.58.11Z" style="fill:#ebebeb"></path><circle cx="439.08" cy="139.91" r="13.37" transform="translate(230.37 550.77) rotate(-80.74)" style="fill:#ebebeb"></circle><path d="M437.64,125.71H438v8.43h2.17v-8.43h.36v8.79h-2.89Z" style="fill:#a6a6a6"></path><path d="M438,134.13V137a1.79,1.79,0,0,1-1.5,1.94,2.25,2.25,0,0,1-2.35-1.9,2.31,2.31,0,0,1,.12-2c.51-.68,1.69-.83,3.55-.86Zm-1.72,4.45h.17a1.46,1.46,0,0,0,1.19-1.59V134.5c-1.6,0-2.68.17-3.09.72a2,2,0,0,0-.06,1.71A2,2,0,0,0,436.28,138.58Z" style="fill:#a6a6a6"></path><path d="M440.17,134.13h.18c1.86,0,3,.18,3.55.86a2.31,2.31,0,0,1,.12,2,2.25,2.25,0,0,1-2.35,1.9,1.79,1.79,0,0,1-1.5-1.94Zm1.72,4.45a2,2,0,0,0,1.78-1.65c.22-.82.21-1.36-.06-1.71-.41-.55-1.48-.69-3.08-.72V137a1.45,1.45,0,0,0,1.19,1.59Z" style="fill:#a6a6a6"></path><rect x="436.28" y="126.29" width="5.61" height="2.93" rx="0.73" transform="translate(878.17 255.51) rotate(180)" style="fill:#ebebeb"></rect><path d="M434.7,116.62h8.78a0,0,0,0,1,0,0V125a2.18,2.18,0,0,1-2.18,2.18h-4.42A2.18,2.18,0,0,1,434.7,125v-8.36A0,0,0,0,1,434.7,116.62Z" transform="translate(878.17 243.77) rotate(180)" style="fill:#c7c7c7"></path><rect x="433.27" y="125.32" width="11.62" height="1.84" transform="translate(878.17 252.47) rotate(180)" style="fill:#a6a6a6"></rect><rect x="433.27" y="121.99" width="11.62" height="1.84" transform="translate(878.17 245.81) rotate(180)" style="fill:#a6a6a6"></rect><rect x="433.97" y="118.66" width="10.22" height="1.84" transform="translate(878.17 239.15) rotate(180)" style="fill:#a6a6a6"></rect><path d="M428,139.63a.58.58,0,0,1,.59.59c0,6.24,6.15,9.85,6.21,9.89a.59.59,0,0,1-.59,1,15.86,15.86,0,0,1-3.4-2.81,11.94,11.94,0,0,1-3.4-8.11A.58.58,0,0,1,428,139.63Z" style="fill:#fff"></path><path d="M427.42,137.35a.71.71,0,1,1,.71.71A.7.7,0,0,1,427.42,137.35Z" style="fill:#fff"></path><rect x="438.58" width="1" height="116.62" style="fill:#a6a6a6"></rect><circle cx="42.52" cy="121.69" r="13.37" transform="translate(-84.42 144.08) rotate(-80.74)" style="fill:#ebebeb"></circle><path d="M41.08,107.49h.35v8.42h2.18v-8.42H44v8.79H41.08Z" style="fill:#a6a6a6"></path><path d="M41.43,115.91v2.85a1.78,1.78,0,0,1-1.49,1.94,2.77,2.77,0,0,1-2.23-3.92c.51-.68,1.69-.83,3.54-.86Zm-1.72,4.45h.18a1.46,1.46,0,0,0,1.19-1.59v-2.48c-1.6,0-2.68.17-3.09.72a2,2,0,0,0-.06,1.71A2,2,0,0,0,39.71,120.36Z" style="fill:#a6a6a6"></path><path d="M43.61,115.91h.18c1.85,0,3,.18,3.55.86a2.3,2.3,0,0,1,.12,2,2.26,2.26,0,0,1-2.35,1.9,1.79,1.79,0,0,1-1.5-1.94Zm1.72,4.45a2,2,0,0,0,1.78-1.65,2,2,0,0,0-.06-1.71c-.41-.55-1.48-.69-3.08-.72v2.48a1.45,1.45,0,0,0,1.18,1.59Z" style="fill:#a6a6a6"></path><rect x="39.72" y="108.07" width="5.61" height="2.93" rx="0.73" transform="translate(85.04 219.07) rotate(180)" style="fill:#ebebeb"></rect><path d="M38.13,98.4h8.78a0,0,0,0,1,0,0v8.36a2.18,2.18,0,0,1-2.18,2.18H40.31a2.18,2.18,0,0,1-2.18-2.18V98.4A0,0,0,0,1,38.13,98.4Z" transform="translate(85.04 207.33) rotate(180)" style="fill:#c7c7c7"></path><rect x="36.71" y="107.1" width="11.62" height="1.84" transform="translate(85.04 216.03) rotate(180)" style="fill:#a6a6a6"></rect><rect x="36.71" y="103.77" width="11.62" height="1.84" transform="translate(85.04 209.37) rotate(180)" style="fill:#a6a6a6"></rect><rect x="37.41" y="100.43" width="10.22" height="1.84" transform="translate(85.04 202.71) rotate(180)" style="fill:#a6a6a6"></rect><path d="M31.42,121.41A.58.58,0,0,1,32,122c0,6.24,6.14,9.85,6.2,9.89a.58.58,0,0,1,.22.81.6.6,0,0,1-.81.22,16,16,0,0,1-3.39-2.81A12,12,0,0,1,30.82,122,.59.59,0,0,1,31.42,121.41Z" style="fill:#fff"></path><path d="M30.85,119.13a.71.71,0,1,1,.71.71A.71.71,0,0,1,30.85,119.13Z" style="fill:#fff"></path><rect x="42.02" width="1" height="98.4" style="fill:#a6a6a6"></rect><circle cx="60.08" cy="82.4" r="13.37" transform="translate(-30.91 128.45) rotate(-80.74)" style="fill:#ebebeb"></circle><path d="M58.64,68.2H59v8.43h2.18V68.2h.35V77H58.64Z" style="fill:#a6a6a6"></path><path d="M59,76.63v2.84a1.79,1.79,0,0,1-1.49,2,2.26,2.26,0,0,1-2.35-1.9,2.23,2.23,0,0,1,.12-2c.51-.68,1.69-.84,3.54-.87Zm-1.72,4.44h.18a1.45,1.45,0,0,0,1.19-1.59V77c-1.6,0-2.68.18-3.09.72a2,2,0,0,0-.06,1.72A2,2,0,0,0,57.27,81.07Z" style="fill:#a6a6a6"></path><path d="M61.17,76.63h.18c1.85,0,3,.19,3.55.87a2.3,2.3,0,0,1,.12,2,2.27,2.27,0,0,1-2.35,1.9,1.8,1.8,0,0,1-1.5-2Zm1.72,4.44a2,2,0,0,0,1.78-1.64,2,2,0,0,0-.06-1.72c-.41-.54-1.48-.68-3.08-.72v2.48a1.44,1.44,0,0,0,1.18,1.59Z" style="fill:#a6a6a6"></path><rect x="57.28" y="68.79" width="5.61" height="2.93" rx="0.73" transform="translate(120.16 140.5) rotate(180)" style="fill:#ebebeb"></rect><path d="M55.69,59.11h8.78a0,0,0,0,1,0,0v8.36a2.18,2.18,0,0,1-2.18,2.18H57.87a2.18,2.18,0,0,1-2.18-2.18V59.11A0,0,0,0,1,55.69,59.11Z" transform="translate(120.16 128.76) rotate(180)" style="fill:#c7c7c7"></path><rect x="54.27" y="67.81" width="11.62" height="1.84" transform="translate(120.16 137.46) rotate(180)" style="fill:#a6a6a6"></rect><rect x="54.27" y="64.48" width="11.62" height="1.84" transform="translate(120.16 130.8) rotate(180)" style="fill:#a6a6a6"></rect><rect x="54.97" y="61.15" width="10.22" height="1.84" transform="translate(120.16 124.14) rotate(180)" style="fill:#a6a6a6"></rect><path d="M49,82.12a.59.59,0,0,1,.59.6c0,6.24,6.14,9.85,6.2,9.88a.59.59,0,0,1-.59,1,15.58,15.58,0,0,1-3.39-2.81,11.93,11.93,0,0,1-3.41-8.1A.6.6,0,0,1,49,82.12Z" style="fill:#fff"></path><path d="M48.41,79.84a.71.71,0,1,1,.71.71A.71.71,0,0,1,48.41,79.84Z" style="fill:#fff"></path><rect x="59.58" width="1" height="59.11" style="fill:#a6a6a6"></rect><circle cx="456.39" cy="97.51" r="13.37" transform="translate(286.74 532.28) rotate(-80.74)" style="fill:#ebebeb"></circle><path d="M455,83.31h.35v8.43h2.18V83.31h.36V92.1H455Z" style="fill:#a6a6a6"></path><path d="M455.3,91.74v2.84a1.79,1.79,0,0,1-1.49,2,2.77,2.77,0,0,1-2.23-3.92c.51-.69,1.69-.84,3.54-.87Zm-1.72,4.44h.18A1.45,1.45,0,0,0,455,94.58V92.1c-1.6,0-2.68.18-3.09.72a2,2,0,0,0-.06,1.72A2,2,0,0,0,453.58,96.18Z" style="fill:#a6a6a6"></path><path d="M457.48,91.74h.18c1.86,0,3,.18,3.55.87a2.3,2.3,0,0,1,.12,2,2.27,2.27,0,0,1-2.35,1.9,1.8,1.8,0,0,1-1.5-2Zm1.72,4.44A2,2,0,0,0,461,94.54a2,2,0,0,0-.06-1.72c-.41-.54-1.48-.68-3.08-.72v2.48A1.44,1.44,0,0,0,459,96.17Z" style="fill:#a6a6a6"></path><rect x="453.59" y="83.89" width="5.61" height="2.93" rx="0.73" transform="translate(912.78 170.72) rotate(180)" style="fill:#ebebeb"></rect><path d="M452,74.22h8.78a0,0,0,0,1,0,0v8.36a2.18,2.18,0,0,1-2.18,2.18h-4.42A2.18,2.18,0,0,1,452,82.58V74.22A0,0,0,0,1,452,74.22Z" transform="translate(912.78 158.98) rotate(180)" style="fill:#c7c7c7"></path><rect x="450.58" y="82.92" width="11.62" height="1.84" transform="translate(912.78 167.68) rotate(180)" style="fill:#a6a6a6"></rect><rect x="450.58" y="79.59" width="11.62" height="1.84" transform="translate(912.78 161.02) rotate(180)" style="fill:#a6a6a6"></rect><rect x="451.28" y="76.26" width="10.22" height="1.84" transform="translate(912.78 154.36) rotate(180)" style="fill:#a6a6a6"></rect><path d="M445.29,97.23a.59.59,0,0,1,.59.6c0,6.24,6.14,9.85,6.21,9.88a.59.59,0,0,1,.21.81.58.58,0,0,1-.81.22,15.58,15.58,0,0,1-3.39-2.81,11.93,11.93,0,0,1-3.41-8.1A.6.6,0,0,1,445.29,97.23Z" style="fill:#fff"></path><path d="M444.72,95a.71.71,0,1,1,.71.71A.71.71,0,0,1,444.72,95Z" style="fill:#fff"></path><rect x="455.89" width="1" height="74.22" style="fill:#a6a6a6"></rect><circle cx="401.91" cy="76.52" r="13.37" transform="translate(261.74 460.89) rotate(-80.74)" style="fill:#ebebeb"></circle><path d="M400.47,62.32h.35v8.43H403V62.32h.36v8.79h-2.89Z" style="fill:#a6a6a6"></path><path d="M400.83,70.75v2.84a1.8,1.8,0,0,1-1.5,2,2.77,2.77,0,0,1-2.23-3.92c.51-.68,1.69-.84,3.54-.87Zm-1.73,4.44h.18a1.45,1.45,0,0,0,1.19-1.59V71.11c-1.6,0-2.68.18-3.09.72a2,2,0,0,0-.06,1.72A2,2,0,0,0,399.1,75.19Z" style="fill:#a6a6a6"></path><path d="M403,70.75h.18c1.86,0,3,.19,3.55.87a2.3,2.3,0,0,1,.12,2,2.27,2.27,0,0,1-2.35,1.9,1.8,1.8,0,0,1-1.5-2Zm1.72,4.44a2,2,0,0,0,1.78-1.64,2,2,0,0,0-.06-1.72c-.41-.54-1.48-.68-3.08-.72v2.48a1.44,1.44,0,0,0,1.18,1.59Z" style="fill:#a6a6a6"></path><rect x="399.11" y="62.91" width="5.61" height="2.93" rx="0.73" transform="translate(803.82 128.75) rotate(180)" style="fill:#ebebeb"></rect><path d="M397.52,53.23h8.78a0,0,0,0,1,0,0v8.36a2.18,2.18,0,0,1-2.18,2.18H399.7a2.18,2.18,0,0,1-2.18-2.18V53.23A0,0,0,0,1,397.52,53.23Z" transform="translate(803.82 117) rotate(180)" style="fill:#c7c7c7"></path><rect x="396.1" y="61.93" width="11.62" height="1.84" transform="translate(803.82 125.71) rotate(180)" style="fill:#a6a6a6"></rect><rect x="396.1" y="58.6" width="11.62" height="1.84" transform="translate(803.82 119.04) rotate(180)" style="fill:#a6a6a6"></rect><rect x="396.8" y="55.27" width="10.22" height="1.84" transform="translate(803.82 112.38) rotate(180)" style="fill:#a6a6a6"></rect><path d="M390.81,76.24a.59.59,0,0,1,.59.6c0,6.24,6.14,9.85,6.21,9.88a.6.6,0,0,1,.22.81.59.59,0,0,1-.82.22,15.85,15.85,0,0,1-3.39-2.81,11.92,11.92,0,0,1-3.4-8.1A.59.59,0,0,1,390.81,76.24Z" style="fill:#fff"></path><path d="M390.24,74a.71.71,0,0,1,1.42,0,.71.71,0,1,1-1.42,0Z" style="fill:#fff"></path><rect x="401.41" width="1" height="53.23" style="fill:#a6a6a6"></rect><path d="M82.46,313c-2.3-2.26-5.28-5-8.8-4-3.32.91-4.59,4.53-5.18,7.55-.77,3.88-1.36,7.8-2,11.71s-1.21,7.91-1.77,11.87c-.32,2.23-.64,4.47-1,6.7-.16,1.12-.32,2.23-.47,3.35s-.34,2.19-.4,3.3a.31.31,0,0,0,.61.07c.43-1.87.61-3.81.88-5.7s.55-3.8.83-5.7q.83-5.67,1.69-11.33t1.77-11.33c.51-3.2.75-7.17,3.58-9.28a5.49,5.49,0,0,1,5.31-.5,15.78,15.78,0,0,1,4.81,3.37S82.51,313.05,82.46,313Z" style="fill:#a6a6a6"></path><path d="M79.31,310.7s-4.71-1.69-7,1.75.46,12.18,21.9,17.11A60.52,60.52,0,0,0,89,310.17C84.42,300.15,76.22,303.94,79.31,310.7Z" style="fill:#ebebeb"></path><path d="M92.94,328.13a15.71,15.71,0,0,0-1.08-1.74c-.36-.55-.72-1.1-1.09-1.65l-.83-1.23c0-.1,0-.2,0-.31s0-.37.07-.55c0-.4.11-.81.17-1.21s.13-.8.2-1.19A6.68,6.68,0,0,1,90.7,319c0-.06-.08-.09-.09,0a5.71,5.71,0,0,1-.19.71l-.15.55c-.1.4-.2.81-.29,1.22s-.16.76-.22,1.14l-.09.55q-.57-.83-1.17-1.62c-1.14-1.5-2.34-2.94-3.59-4.35a.05.05,0,0,0,0,0,38.6,38.6,0,0,1,.56-6.7c0-.06-.08-.09-.09,0a23.15,23.15,0,0,0-.81,6.41c-.44-.5-.89-1-1.35-1.49-1-1.12-2.11-2.23-3.2-3.31,0,0-.11,0-.07.07,1.81,1.94,3.53,4,5.2,6a36.59,36.59,0,0,0-3.92.15c-1.46.11-2.9.29-4.35.49-.06,0,0,.11,0,.1a39.53,39.53,0,0,1,4.34-.39c1.4-.06,2.79,0,4.19,0q1.35,1.68,2.67,3.38H86.94q-1,0-2,.12a29.08,29.08,0,0,0-4,.59,0,0,0,1,0,0,.09c1.32-.14,2.64-.27,4-.31.63,0,1.26,0,1.9,0h1a1.35,1.35,0,0,0,.54-.05c.58.74,1.16,1.49,1.73,2.25.45.6.9,1.2,1.34,1.81s.86,1.3,1.36,1.88C92.9,328.23,93,328.18,92.94,328.13Z" style="fill:#a6a6a6"></path><path d="M81.36,315.58a13.47,13.47,0,0,0-2.29-.12c-.77,0-1.54,0-2.3.05-.07,0-.07.1,0,.1.77-.06,1.55-.07,2.32-.06s1.51.08,2.26.06A0,0,0,1,0,81.36,315.58Z" style="fill:#a6a6a6"></path><path d="M88.09,317.3c.09-.73.18-1.46.34-2.19,0-.06-.09-.09-.1,0-.11.73-.25,1.44-.35,2.16-.06.36-.11.73-.15,1.09a5,5,0,0,0-.09,1,.07.07,0,0,0,.13,0,6.92,6.92,0,0,0,.11-1C88,318,88.05,317.65,88.09,317.3Z" style="fill:#a6a6a6"></path><path d="M86.68,309.19c-.19.71-.37,1.43-.51,2.16-.06.37-.12.74-.17,1.11a4.33,4.33,0,0,0-.07,1.08s0,0,.06,0a7.14,7.14,0,0,0,.17-1c0-.36.1-.71.16-1.07.13-.74.26-1.48.45-2.22A0,0,0,1,0,86.68,309.19Z" style="fill:#a6a6a6"></path><path d="M58.75,352.69q-.18-2-.39-4.05c-.28-2.67-.61-5.34-1-8s-.69-5.32-1.12-8a20.09,20.09,0,0,0-.82-3.61,3.43,3.43,0,0,0-2-2.26c-2.52-.88-4.23,1.74-5.25,3.59,0,.06,0,.1.09.05.61-.88,2.3-3.34,4.21-3.22,1.29.07,2.32,1,2.94,4.2,1.54,8,2.93,24.24,3.09,25.3.08.56.48.54.48-.06C59,355.34,58.87,354,58.75,352.69Z" style="fill:#a6a6a6"></path><path d="M48.89,329.41s2.2-7.79-2.68-3.9c-8.11,6.49-8.4,20.59-8.4,20.59S52.24,337.72,54,332.19C56.7,324,48.89,329.41,48.89,329.41Z" style="fill:#ebebeb"></path><path d="M51.62,333.23c-1.14.23-2.28.38-3.43.54l-1.62.23-1.11.13c1.08-1.48,2.16-2.95,3.19-4.46a.06.06,0,0,0-.09-.07,32,32,0,0,0-2.41,2.78c-.22-.6-.43-1.21-.64-1.81s-.51-1.39-.69-2.11c0-.06-.11,0-.09,0,.19.71.33,1.44.53,2.16s.39,1.37.63,2c-.52.69-1,1.39-1.52,2.1-.25-.7-.56-1.38-.78-2.1a0,0,0,0,0-.09,0c.26.79.4,1.61.64,2.41l-1,1.45c-.58.9-1.13,1.82-1.67,2.74a.22.22,0,0,0-.12.22c-.91,1.58-1.78,3.18-2.64,4.79,0,.06.06.11.09.05.85-1.59,1.81-3.15,2.8-4.67h0a1.71,1.71,0,0,1,.47-.09l.5-.11,1.11-.27c.73-.18,1.46-.36,2.2-.48.06,0,0-.11,0-.1-.87.17-1.75.27-2.63.37-.42.05-.83.1-1.25.17h-.06c.52-.79,1.05-1.57,1.58-2.35s1.06-1.51,1.6-2.26c.5-.07,1-.2,1.5-.29l1.67-.33c1.12-.22,2.23-.47,3.35-.66C51.7,333.31,51.68,333.22,51.62,333.23Z" style="fill:#a6a6a6"></path><path d="M43,334c-.07-.21-.13-.42-.2-.62a11.41,11.41,0,0,1-.33-1.31c0-.06-.11,0-.09,0,.09.44.19.88.29,1.32a8.29,8.29,0,0,0,.38,1.29c0,.1.2.06.17,0S43,334.22,43,334Z" style="fill:#a6a6a6"></path><path d="M53.09,331.43c-.66.1-1.32.14-2,.2s-1.32.15-2,.25a0,0,0,0,0,0,.06c.66-.05,1.32-.1,2-.19s1.32-.18,2-.23C53.16,331.52,53.15,331.42,53.09,331.43Z" style="fill:#a6a6a6"></path><path d="M69.37,342.83c-.26-5.74-.62-11.46-1.2-17.17-.28-2.85-.6-5.69-1-8.52a60.67,60.67,0,0,0-1.64-8.24,15.82,15.82,0,0,0-2.74-5.82,6.27,6.27,0,0,0-5.55-2.42c-2.51.31-4.53,1.9-6.27,3.61-2,1.93-3.76,4-5.58,6.1-.46.52-.91,1-1.36,1.57,0,.05,0,.11.07.07,1.77-2,3.62-4,5.55-5.92,1.78-1.75,3.62-3.67,6.09-4.39a6.27,6.27,0,0,1,3.54-.08,5.62,5.62,0,0,1,2.42,1.53,12.65,12.65,0,0,1,2.72,5.3c1.55,5.27,2.1,10.8,2.67,16.24s1,11.08,1.25,16.63.5,11.17,1,16.74c.07.68.15,1.37.24,2.05.06.46.78.46.74,0C69.89,354.34,69.63,348.59,69.37,342.83Z" style="fill:#a6a6a6"></path><path d="M50.64,304.89s3.27-6.06-.59-8S33.23,309.4,29.44,330.54c0,0,20.92-9.26,28-18.48S56.51,300.81,50.64,304.89Z" style="fill:#ebebeb"></path><path d="M53.72,309.82c-2.36,0-4.7-.17-7-.16L48,308.15A20.77,20.77,0,0,0,49.83,306s0-.11-.08-.08A15.84,15.84,0,0,0,48,307.72c-.59.62-1.18,1.25-1.76,1.88-.9,1-1.78,2-2.66,2.95V311l0-2.39c0-1.62,0-3.24.12-4.85,0-.07-.09-.06-.1,0-.11,1.62-.28,3.23-.36,4.86,0,.8-.05,1.59-.06,2.39,0,.41,0,.82,0,1.24,0,.22,0,.46,0,.69l-.42.46c-1.87,2.14-3.66,4.36-5.39,6.62l0-.38-.09-.74q-.09-.81-.21-1.62l-.24-1.51a16.47,16.47,0,0,1-.28-1.71c0-.07-.11,0-.09,0a14.14,14.14,0,0,1,.19,1.72l.15,1.55c0,.52.09,1,.14,1.55,0,.25.05.5.08.75s0,.25,0,.37a.87.87,0,0,0,.1.3l-.89,1.17c-1.19,1.57-2.35,3.15-3.51,4.74,0,.05,0,.12.07.07,1.1-1.44,2.23-2.85,3.38-4.25.86,0,1.74,0,2.6-.05l2.72,0c.07,0,.06-.1,0-.09-.91,0-1.81,0-2.72,0s-1.67,0-2.5,0q1.52-1.84,3.06-3.67c.37-.45.75-.89,1.12-1.33a5.27,5.27,0,0,0,1,0h1.24l2.32,0c1.59,0,3.19-.08,4.79-.08.06,0,.06-.1,0-.1-1.59,0-3.19-.09-4.79-.13l-2.32-.06H41.5c-.23,0-.47,0-.71,0l2.63-3.12a.1.1,0,0,0,0-.06l2.58-3,.36-.41c2.44.07,4.87-.09,7.31,0A.05.05,0,0,0,53.72,309.82Z" style="fill:#a6a6a6"></path><path d="M52.51,314h-.57s0,.09,0,.09h.57C52.58,314.08,52.58,314,52.51,314Z" style="fill:#a6a6a6"></path><path d="M51.25,314,49,313.94l-1.13,0a4.6,4.6,0,0,0-1,0,0,0,0,0,0,0,.07,4.1,4.1,0,0,0,1,.08l1.13,0h2.26A0,0,0,1,0,51.25,314Z" style="fill:#a6a6a6"></path><path d="M44.67,321a31.1,31.1,0,0,0-4.62-.41s0,0,0,0c1.53.15,3.07.23,4.6.48C44.71,321.15,44.73,321.05,44.67,321Z" style="fill:#a6a6a6"></path><path d="M38.39,314.32c0-.14,0-.27,0-.41,0-.3-.09-.6-.14-.9-.09-.58-.19-1.15-.3-1.72,0-.06-.1,0-.09,0,.07.59.13,1.19.19,1.78,0,.29,0,.58.07.87a2.53,2.53,0,0,0,.12.83.11.11,0,0,0,.2,0A1.24,1.24,0,0,0,38.39,314.32Z" style="fill:#a6a6a6"></path><path d="M69.16,297.11c-.75-1.39-1.7-3.23-3.57-3.12-1.54.1-2.23,1.68-2.56,3-1,4-1.09,8.27-1.29,12.39-.42,8.72-.8,17.45-.85,26.17,0,2.42,0,4.84,0,7.26s0,4.95.17,7.41a.19.19,0,0,0,.37,0c0-2.11-.06-4.23-.07-6.34s0-4.12,0-6.18q.11-6.26.33-12.51c.16-4.14.34-8.29.51-12.43l.27-6.21c.09-2,.18-4,.41-6,.13-1.12.29-2.24.53-3.34a4.56,4.56,0,0,1,1-2.23,2.11,2.11,0,0,1,2.73-.2,5.85,5.85,0,0,1,1.93,2.41C69.11,297.22,69.19,297.17,69.16,297.11Z" style="fill:#a6a6a6"></path><path d="M68.66,296.45s-1.54-5.43,1.86-2.72c5.65,4.52,5.85,14.34,5.85,14.34s-10.05-5.84-11.3-9.69C63.21,292.65,68.66,296.45,68.66,296.45Z" style="fill:#ebebeb"></path><path d="M74.26,304.05c-.09-.15-.19-.3-.29-.45a2.36,2.36,0,0,0,0-.46v-.7c0-.46,0-.92,0-1.38,0-.06-.09-.06-.09,0,0,.44,0,.89-.06,1.34,0,.23,0,.45,0,.68s0,.19,0,.29c-.39-.61-.8-1.22-1.22-1.82l-.37-.51a10.47,10.47,0,0,1,0-1.77c0-.63,0-1.26,0-1.89a.05.05,0,0,0-.1,0c0,.66-.05,1.31-.08,2a10.86,10.86,0,0,0,0,1.4c-1-1.32-2-2.59-3-3.86,0,0-.1,0-.07.06.65.82,1.26,1.66,1.87,2.51-1.18-.28-2.38-.44-3.59-.61-.06,0-.08.08,0,.09,1.27.19,2.52.51,3.78.79h0c.48.67,1,1.36,1.43,2l.57.84h0l-.39-.05c-.28,0-.56-.06-.84-.08-.58-.05-1.16-.08-1.74-.11a.05.05,0,0,0,0,.1c.58,0,1.14.06,1.71.12l.9.11.39,0,.12,0,1,1.42c.57.84,1.08,1.74,1.68,2.55a0,0,0,1,0,.08-.05A26.49,26.49,0,0,0,74.26,304.05Z" style="fill:#a6a6a6"></path><path d="M71.75,297.92c0-.21,0-.42,0-.64a9.65,9.65,0,0,1,0-1.32c0-.07-.09-.09-.09,0,0,.44,0,.88-.07,1.32,0,.22,0,.44,0,.66v.3a.85.85,0,0,0,0,.32s.07,0,.08,0a1,1,0,0,0,0-.29C71.76,298.14,71.75,298,71.75,297.92Z" style="fill:#a6a6a6"></path><path d="M70.51,300.16c-.37-.06-.75-.08-1.13-.11s-.83-.07-1.24-.13c-.07,0-.08.1,0,.1.79.05,1.58.19,2.37.22A0,0,0,0,0,70.51,300.16Z" style="fill:#a6a6a6"></path><path d="M73.67,300.2s0,.16,0,.21v.93a.91.91,0,0,0,0,.33s0,0,0,0a.41.41,0,0,0,0-.16v-1.1c0-.06,0-.17,0-.21S73.6,300.11,73.67,300.2Z" style="fill:#a6a6a6"></path><path d="M69.4,326.06c-2.12-1.59-4-3.87-6.86-4-2.34-.09-4,1.67-4.93,3.64A21.89,21.89,0,0,0,56.46,329c-.42,1.49-.82,3-1.2,4.48-.73,2.94-1.37,5.92-1.88,8.91-.28,1.67-.55,3.35-.76,5a44.27,44.27,0,0,0-.5,5.14.27.27,0,0,0,.53.06c.29-1.41.41-2.86.61-4.28s.43-2.85.67-4.28c.48-2.84,1-5.68,1.68-8.49.61-2.66,1.2-5.36,2.06-7.95.62-1.86,1.6-4,3.61-4.69,3-1,5.82,1.56,8,3.24C69.38,326.17,69.45,326.1,69.4,326.06Z" style="fill:#a6a6a6"></path><path d="M67.21,324.54s-1.95-5.56.87-6.65c4.22-1.64,15.28,10.81,13.11,29.89a108.93,108.93,0,0,1-14.84-10c-6.31-5.29-7.92-12.21-5.15-14S67.21,324.54,67.21,324.54Z" style="fill:#ebebeb"></path><path d="M79.92,343.69a16.26,16.26,0,0,0-1-1.93c-.36-.65-.73-1.3-1.1-1.94-.74-1.26-1.47-2.52-2.22-3.76l-.37-.6c0-.08,0-.15,0-.23l.12-.55c.1-.41.17-.83.25-1.25.15-.81.29-1.64.51-2.44,0-.06-.08-.08-.09,0-.18.82-.44,1.62-.68,2.42-.12.39-.24.78-.35,1.18,0,.14-.07.27-.1.41-.91-1.49-1.83-3-2.83-4.4a2.05,2.05,0,0,0,.1-.61c0-.28.06-.56.1-.84.07-.63.14-1.26.23-1.88.19-1.23.37-2.45.67-3.66,0-.06-.08-.07-.09,0-.31,1.2-.64,2.4-.87,3.62-.11.59-.21,1.19-.29,1.8,0,.3-.07.6-.11.9l0,.28c-.31-.44-.61-.87-.93-1.29-1-1.28-2-2.54-3-3.78,0-.05-.12,0-.08.05a66.8,66.8,0,0,1,4.8,7c.28.45.56.9.83,1.35l-.27,0c-.36-.05-.72-.07-1.08-.1l-2.15-.19c-1.44-.11-2.89-.2-4.32-.36-.06,0-.08.09,0,.1,1.46.17,2.9.4,4.35.61l2.14.28a8,8,0,0,0,1.65.17l1.69,2.76a2.36,2.36,0,0,0-.38,0H73l-2.78,0c-.07,0-.06.09,0,.09.94,0,1.87.06,2.81.11l1.33.08.67,0a1.47,1.47,0,0,0,.59,0c.47.78,1,1.56,1.44,2.34s.89,1.44,1.34,2.15a17.94,17.94,0,0,0,1.45,2.18S79.94,343.75,79.92,343.69Z" style="fill:#a6a6a6"></path><path d="M75.85,328.27a12.41,12.41,0,0,1-.39,1.81c-.15.62-.33,1.23-.53,1.84,0,.08.09.12.11,0,.19-.6.36-1.21.51-1.82s.24-1.24.39-1.85C76,328.23,75.85,328.21,75.85,328.27Z" style="fill:#a6a6a6"></path><path d="M69.57,332a.7.7,0,0,0-.46-.18l-.81-.11-1.5-.18c-1-.12-2.08-.22-3.12-.35a0,0,0,1,0,0,.09c1,.12,2,.27,2.94.4l1.44.19.69.07a2.4,2.4,0,0,1,.8.14A0,0,0,0,0,69.57,332Z" style="fill:#a6a6a6"></path><path d="M75.83,340.39c-.49-.05-1-.06-1.48-.08l-.74,0h-.36a2.48,2.48,0,0,1-.47,0c-.06,0-.07.11,0,.1a1.62,1.62,0,0,1,.44,0l.38,0,.75.05c.49,0,1,.06,1.48.06A.05.05,0,0,0,75.83,340.39Z" style="fill:#a6a6a6"></path><path d="M78.84,338.25c.06-.28.11-.56.16-.84.1-.55.21-1.1.31-1.65,0-.06-.09-.07-.1,0l-.36,1.6-.18.81-.07.37a1,1,0,0,0,0,.39c0,.05.08.08.11,0A1.91,1.91,0,0,0,78.84,338.25Z" style="fill:#a6a6a6"></path><polygon points="49.93 350.39 50.52 357.15 52.54 379.98 70.42 379.98 72.95 357.15 73.69 350.39 49.93 350.39" style="fill:#c7c7c7"></polygon><polygon points="49.93 350.39 50.52 357.15 72.95 357.15 73.69 350.39 49.93 350.39" style="fill:#a6a6a6"></polygon><rect x="48.16" y="348.54" width="27.31" height="5.49" transform="translate(123.62 702.57) rotate(180)" style="fill:#c7c7c7"></rect></g><g id="freepik--Shadow--inject-75"><ellipse cx="250" cy="436.39" rx="191.42" ry="25.77" style="fill:#ebebeb"></ellipse></g><g id="freepik--Floor--inject-75"><polygon points="29.11 380.17 84.33 379.93 139.56 379.84 250 379.67 360.44 379.84 415.67 379.93 470.89 380.17 415.67 380.42 360.44 380.5 250 380.67 139.56 380.5 84.33 380.42 29.11 380.17" style="fill:#263238"></polygon></g><g id="freepik--Curtain--inject-75"><path d="M311.19,405.41H296.77a21,21,0,0,1-7.11-1.23l-9.05-3.24a21.18,21.18,0,0,0-14.14,0l-5,1.75a21.11,21.11,0,0,1-15.38-.51h0A21,21,0,0,0,233,401l-14.23,3.31a21.17,21.17,0,0,1-9.6,0l-19.83-4.64a21.1,21.1,0,0,0-10.53.24l-14.09,4a21,21,0,0,1-11.1.1l-11.69-3.08a21.23,21.23,0,0,0-11,.06l-16.19,4.48V111.28H311.19Z" style="fill:#ebebeb"></path><path d="M146.76,402.14l-4.82-1.27a21.23,21.23,0,0,0-11,.06s2.19-213.39,8.83-215.61C145.52,183.39,146.58,364.69,146.76,402.14Z" style="fill:#dbdbdb"></path><path d="M194.31,400.81l-5-1.16a21.2,21.2,0,0,0-9.31-.07c-.62-26-2.64-150.75,5-156.57C192.24,237.58,193.93,362.32,194.31,400.81Z" style="fill:#dbdbdb"></path><path d="M242.92,401.06A20.95,20.95,0,0,0,233,401l-1.3.3c-.36-27.73-1.53-184.11,4.08-186.78C241,212,242.54,361.6,242.92,401.06Z" style="fill:#dbdbdb"></path><path d="M282.44,401.59l-1.83-.65a21.09,21.09,0,0,0-11.48-.77c.26-91.88.67-202.75,5.65-206C280.08,190.64,281.07,298.33,282.44,401.59Z" style="fill:#dbdbdb"></path><path d="M192.55,172.89c-6.77,2.39-2.29,55.83,2.65,55.63S199.31,170.49,192.55,172.89Z" style="fill:#dbdbdb"></path><path d="M291.84,298.48c-3.31,1.06-1.36,46.56,1.84,46.11S297.48,296.67,291.84,298.48Z" style="fill:#dbdbdb"></path></g><g id="freepik--Chair--inject-75"><rect x="114.77" y="315.26" width="49.96" height="114.07" style="fill:#5CA49F"></rect><rect x="114.77" y="315.26" width="49.96" height="114.07" style="opacity:0.1"></rect><polygon points="164.73 429.34 186.28 410.61 186.28 315.26 164.73 315.26 164.73 429.34" style="fill:#5CA49F"></polygon><polygon points="164.73 429.34 186.28 410.61 186.28 315.26 164.73 315.26 164.73 429.34" style="opacity:0.2"></polygon></g><g id="freepik--photo-booth--inject-75"><rect x="311.19" y="111.28" width="112.08" height="329.06" style="fill:#37474f"></rect><rect x="76.73" y="111.28" width="38" height="329.06" style="fill:#37474f"></rect><rect x="76.73" y="100.25" width="346.54" height="11.03" style="fill:#37474f"></rect><rect x="147.57" y="45.9" width="204.86" height="65.39" style="fill:#5CA49F"></rect><rect x="147.57" y="45.9" width="204.86" height="65.39" style="opacity:0.2"></rect><rect x="152.86" y="51.1" width="194.28" height="54.98" style="fill:#263238"></rect><path d="M175.71,91.27V66h10.74a7.11,7.11,0,0,1,3.22.73,8.27,8.27,0,0,1,2.55,1.93,9,9,0,0,1,1.68,2.71,8.2,8.2,0,0,1,.61,3,8.89,8.89,0,0,1-2.18,5.82,8,8,0,0,1-2.5,1.89,7.27,7.27,0,0,1-3.21.71h-6v8.49Zm4.92-12.8h5.71a2.8,2.8,0,0,0,2.26-1.11,4.57,4.57,0,0,0,.91-3,5,5,0,0,0-.28-1.73,4.23,4.23,0,0,0-.75-1.3,3.05,3.05,0,0,0-1.09-.8,3.18,3.18,0,0,0-1.26-.27h-5.5Z" style="fill:#fff"></path><path d="M220.22,66V91.27h-4.89V80.46H203.85V91.27h-4.92V66h4.92V76.18h11.48V66Z" style="fill:#fff"></path><path d="M276.22,70.26h-8.1v21h-4.89v-21h-8.09V66h21.08Z" style="fill:#fff"></path><path d="M290,91.45a11.53,11.53,0,0,1-5-1.09,12.47,12.47,0,0,1-3.89-2.89,13.36,13.36,0,0,1-3.41-8.86,12.7,12.7,0,0,1,.95-4.85,13.43,13.43,0,0,1,2.6-4.1,12.46,12.46,0,0,1,3.94-2.84,11.73,11.73,0,0,1,5-1,11.1,11.1,0,0,1,5,1.12,12.44,12.44,0,0,1,3.87,3A13.44,13.44,0,0,1,301.46,74a13,13,0,0,1,.9,4.71,12.74,12.74,0,0,1-.93,4.83,13.33,13.33,0,0,1-2.57,4.07,12.38,12.38,0,0,1-3.92,2.81A11.59,11.59,0,0,1,290,91.45Zm-7.34-12.84a10.25,10.25,0,0,0,.49,3.17,8.6,8.6,0,0,0,1.45,2.71,7,7,0,0,0,2.32,1.89,7.1,7.1,0,0,0,6.27,0,7,7,0,0,0,2.32-1.94,8.69,8.69,0,0,0,1.43-2.73,10.16,10.16,0,0,0,.48-3.08,9.77,9.77,0,0,0-.52-3.18,8.73,8.73,0,0,0-1.46-2.71,7.07,7.07,0,0,0-2.32-1.87,7.26,7.26,0,0,0-6.26,0,7.09,7.09,0,0,0-2.31,1.92,8.64,8.64,0,0,0-1.41,2.71A10.17,10.17,0,0,0,282.64,78.61Z" style="fill:#fff"></path><path d="M321.22,72.58a7.21,7.21,0,0,0-.91-.68,11.2,11.2,0,0,0-1.6-.83,13.33,13.33,0,0,0-2-.7,9,9,0,0,0-2.25-.28,5,5,0,0,0-3,.74,2.47,2.47,0,0,0-1,2.11,2.15,2.15,0,0,0,.37,1.3,3.35,3.35,0,0,0,1.09.91,9.24,9.24,0,0,0,1.8.71c.73.22,1.57.44,2.52.68,1.23.33,2.36.69,3.37,1.07A9.29,9.29,0,0,1,322.1,79a5.85,5.85,0,0,1,1.62,2,6.76,6.76,0,0,1,.57,2.94,7.39,7.39,0,0,1-.77,3.48,6.38,6.38,0,0,1-2.07,2.33,8.71,8.71,0,0,1-3,1.3,14.69,14.69,0,0,1-3.55.41,19,19,0,0,1-5.63-.85,17.34,17.34,0,0,1-5-2.43L306.46,84a7.19,7.19,0,0,0,1.16.84,16.3,16.3,0,0,0,2,1,14.15,14.15,0,0,0,2.53.87,11.3,11.3,0,0,0,2.85.36q4.06,0,4.07-2.6a2.12,2.12,0,0,0-.47-1.39,3.89,3.89,0,0,0-1.32-1,12.33,12.33,0,0,0-2.07-.79l-2.71-.78a22.89,22.89,0,0,1-3.15-1.09,8.08,8.08,0,0,1-2.23-1.39,5.14,5.14,0,0,1-1.34-1.85,6.57,6.57,0,0,1-.44-2.52A7.81,7.81,0,0,1,306,70.3a6.84,6.84,0,0,1,2-2.5A8.9,8.9,0,0,1,311,66.29a12,12,0,0,1,3.6-.52,13.88,13.88,0,0,1,4.92.84,18.5,18.5,0,0,1,3.93,2Z" style="fill:#fff"></path><path d="M237.9,91.45c-15.76-8.66-17-21.49-10.21-25,6.44-3.3,10.21,5.94,10.21,10.2,0-4.26,3.78-13.5,10.22-10.2C254.94,70,253.67,82.79,237.9,91.45Z" style="fill:#fff"></path><path d="M151.49,48.94a.84.84,0,1,1-.84-.83A.84.84,0,0,1,151.49,48.94Z" style="fill:#ebebeb"></path><path d="M151.49,108.24a.84.84,0,1,1-.84-.83A.84.84,0,0,1,151.49,108.24Z" style="fill:#ebebeb"></path><path d="M350.18,48.94a.84.84,0,1,1-.83-.83A.83.83,0,0,1,350.18,48.94Z" style="fill:#ebebeb"></path><path d="M350.18,108.24a.84.84,0,1,1-.83-.83A.83.83,0,0,1,350.18,108.24Z" style="fill:#ebebeb"></path><rect x="323.45" y="123.12" width="87.56" height="146.5" style="fill:#263238"></rect><rect x="350.78" y="234.01" width="32.9" height="20.11" style="fill:#fff"></rect><polygon points="375.4 234.01 359.06 234.01 360.68 230.15 373.79 230.15 375.4 234.01" style="fill:#fff"></polygon><circle cx="367.23" cy="244.06" r="7.63" style="fill:#263238"></circle><path d="M373.16,244.06a5.93,5.93,0,1,1-5.93-5.92A5.93,5.93,0,0,1,373.16,244.06Z" style="fill:#fff"></path><rect x="378.58" y="235.72" width="3.16" height="1.82" style="fill:#263238"></rect><rect x="351.88" y="232.52" width="3.13" height="0.91" style="fill:#fff"></rect><path d="M349.72,167.28h10.65v6.19h-17.7V142.54h7.05Z" style="fill:#5CA49F"></path><path d="M378.07,142a15.67,15.67,0,0,1,15.55,16c0,9-6.67,16.05-15.55,16.05-9.15,0-15.6-7-15.6-16.05A15.76,15.76,0,0,1,378.07,142Zm0,25.24c5.62,0,7.94-4.62,7.94-9.23s-2.47-9.22-7.94-9.22-8,4.61-8,9.22S372.29,167.21,378.07,167.21Z" style="fill:#5CA49F"></path><path d="M340.84,180h7.94l7.8,20.32,7.8-20.32h7.95l-13,30.93h-5.55Z" style="fill:#5CA49F"></path><path d="M391.23,186.22H380.58v6.14h10.2v6.19h-10.2v6.22h10.65V211h-17.7V180h17.7Z" style="fill:#5CA49F"></path><path d="M347.53,146.13a1.39,1.39,0,1,1-1.39-1.39A1.4,1.4,0,0,1,347.53,146.13Z" style="fill:#fff"></path><path d="M379.47,145.28a1.39,1.39,0,1,1-1.38-1.38A1.38,1.38,0,0,1,379.47,145.28Z" style="fill:#fff"></path><path d="M367.46,159.11a1.39,1.39,0,1,1-1.39-1.39A1.38,1.38,0,0,1,367.46,159.11Z" style="fill:#fff"></path><circle cx="368.84" cy="150.07" r="1.39" style="fill:#fff"></circle><circle cx="387.14" cy="150.07" r="1.39" style="fill:#fff"></circle><path d="M370.23,167.35a1.39,1.39,0,1,1-1.39-1.38A1.39,1.39,0,0,1,370.23,167.35Z" style="fill:#fff"></path><path d="M388.53,167.35a1.39,1.39,0,1,1-1.39-1.38A1.39,1.39,0,0,1,388.53,167.35Z" style="fill:#fff"></path><path d="M391.3,159.11a1.39,1.39,0,1,1-1.39-1.39A1.38,1.38,0,0,1,391.3,159.11Z" style="fill:#fff"></path><path d="M379.47,171.06a1.39,1.39,0,1,1-1.38-1.39A1.38,1.38,0,0,1,379.47,171.06Z" style="fill:#fff"></path><path d="M347.53,154.26a1.39,1.39,0,1,1-1.39-1.39A1.39,1.39,0,0,1,347.53,154.26Z" style="fill:#fff"></path><path d="M347.53,162.39a1.39,1.39,0,1,1-1.39-1.39A1.39,1.39,0,0,1,347.53,162.39Z" style="fill:#fff"></path><path d="M347.53,170.52a1.39,1.39,0,1,1-1.39-1.39A1.39,1.39,0,0,1,347.53,170.52Z" style="fill:#fff"></path><path d="M378.41,182.93a1.39,1.39,0,1,1-1.39-1.39A1.39,1.39,0,0,1,378.41,182.93Z" style="fill:#fff"></path><path d="M347.29,182.93a1.39,1.39,0,1,1-1.39-1.39A1.38,1.38,0,0,1,347.29,182.93Z" style="fill:#fff"></path><path d="M350.3,190.76a1.39,1.39,0,1,1-1.39-1.38A1.39,1.39,0,0,1,350.3,190.76Z" style="fill:#fff"></path><path d="M368.84,182.94a1.39,1.39,0,1,1-1.38-1.39A1.38,1.38,0,0,1,368.84,182.94Z" style="fill:#fff"></path><path d="M378.41,191.06a1.39,1.39,0,1,1-1.39-1.39A1.39,1.39,0,0,1,378.41,191.06Z" style="fill:#fff"></path><path d="M365.65,191.06a1.39,1.39,0,1,1-1.39-1.39A1.38,1.38,0,0,1,365.65,191.06Z" style="fill:#fff"></path><path d="M378.41,199.19A1.39,1.39,0,1,1,377,197.8,1.39,1.39,0,0,1,378.41,199.19Z" style="fill:#fff"></path><path d="M353.64,199.19a1.39,1.39,0,1,1-1.39-1.39A1.38,1.38,0,0,1,353.64,199.19Z" style="fill:#fff"></path><path d="M362.24,199.19a1.39,1.39,0,1,1-1.38-1.39A1.38,1.38,0,0,1,362.24,199.19Z" style="fill:#fff"></path><circle cx="377.02" cy="207.32" r="1.39" style="fill:#fff"></circle><path d="M358,207.32a1.39,1.39,0,1,1-1.39-1.39A1.38,1.38,0,0,1,358,207.32Z" style="fill:#fff"></path><path d="M355.66,170.52a1.39,1.39,0,1,1-1.39-1.39A1.39,1.39,0,0,1,355.66,170.52Z" style="fill:#fff"></path><path d="M386.54,182.93a1.39,1.39,0,1,1-1.39-1.39A1.38,1.38,0,0,1,386.54,182.93Z" style="fill:#fff"></path><circle cx="385.15" cy="207.32" r="1.39" style="fill:#fff"></circle><path d="M386.54,195.49a1.39,1.39,0,1,1-1.39-1.38A1.39,1.39,0,0,1,386.54,195.49Z" style="fill:#fff"></path><path d="M397.27,253.75s-.2-4-1.83-3.42c-1.1.42-1.45,3.59,1.36,6.76,0,0,4.2-2.45,4.07-5.1C400.79,250.28,398.84,250.85,397.27,253.75Z" style="fill:#fff"></path><path d="M342.78,225.5s-1.54-9.63-5.29-7.72c-2.51,1.29-2.52,9,5,15.84,0,0,9.42-7,8.43-13.26C350.3,216.27,345.77,218.15,342.78,225.5Z" style="fill:#5CA49F"></path><path d="M336.73,233.6s-3.62-5.79-5.51-3.54c-1.27,1.51.81,6.47,7.54,8.85,0,0,4.18-7,1.83-10.85C339.07,225.61,336.66,228.05,336.73,233.6Z" style="fill:#fff"></path><path d="M397.27,139.41s.3-6.82-2.54-6c-1.9.53-3,5.8,1.23,11.56,0,0,7.43-3.44,7.63-7.91C403.72,134.13,400.35,134.79,397.27,139.41Z" style="fill:#5CA49F"></path><path d="M352.49,137.37a2.42,2.42,0,0,1-1.83.87,2.39,2.39,0,0,1-1.06-.24,3,3,0,0,1-.84-.66,3.17,3.17,0,0,1-.55-.92,2.81,2.81,0,0,1-.2-1.06,3,3,0,0,1,.74-2,2.85,2.85,0,0,1,.83-.63,2.31,2.31,0,0,1,1.05-.24,2.59,2.59,0,0,1,.76.1,2.23,2.23,0,0,1,.61.25,2,2,0,0,1,.47.39,2.7,2.7,0,0,1,.33.5l-.43.29a1.82,1.82,0,0,0-.73-.77,2,2,0,0,0-1-.25,1.72,1.72,0,0,0-.85.2,2.08,2.08,0,0,0-.65.53,2.42,2.42,0,0,0-.41.76,2.94,2.94,0,0,0-.14.88,2.58,2.58,0,0,0,.16.92,2.46,2.46,0,0,0,.45.75,2.28,2.28,0,0,0,.68.52,1.85,1.85,0,0,0,.84.19,2,2,0,0,0,.93-.23,2.8,2.8,0,0,0,.86-.72v-.95h-1.27v-.43H353v2.79h-.47Z" style="fill:#fff"></path><path d="M357.93,137.71v.49h-3.82v-5.68h3.74v.5h-3.18v2h2.78v.47h-2.78v2.17Z" style="fill:#fff"></path><path d="M363,133h-2v5.18h-.56V133h-2v-.5H363Z" style="fill:#fff"></path><path d="M365.44,132.52l1.85,3.06,1.88-3.06h.6l-2.2,3.57v2.11H367v-2.12l-2.19-3.56Z" style="fill:#fff"></path><path d="M372.52,138.24a2.45,2.45,0,0,1-1.09-.24,2.79,2.79,0,0,1-.84-.65,2.94,2.94,0,0,1-.54-.92,3,3,0,0,1-.2-1.07,2.85,2.85,0,0,1,.21-1.08,2.84,2.84,0,0,1,1.41-1.56,2.39,2.39,0,0,1,1.06-.24,2.33,2.33,0,0,1,1.08.26,2.47,2.47,0,0,1,.84.66,3.14,3.14,0,0,1,.54.92,2.91,2.91,0,0,1,.19,1.05,3,3,0,0,1-.76,2,2.81,2.81,0,0,1-.85.63A2.31,2.31,0,0,1,372.52,138.24Zm-2.1-2.88A2.57,2.57,0,0,0,371,137a2.2,2.2,0,0,0,.66.52,1.88,1.88,0,0,0,.86.2,1.81,1.81,0,0,0,.87-.21,2.17,2.17,0,0,0,.66-.54,2.27,2.27,0,0,0,.42-.76,2.57,2.57,0,0,0,.15-.87,2.68,2.68,0,0,0-.15-.89,2.55,2.55,0,0,0-.44-.75,2.24,2.24,0,0,0-.66-.53,1.86,1.86,0,0,0-.85-.19,1.8,1.8,0,0,0-.87.2,2.1,2.1,0,0,0-.67.54,2.54,2.54,0,0,0-.56,1.62Z" style="fill:#fff"></path><path d="M378.54,137.74a1.8,1.8,0,0,0,.89-.2A1.64,1.64,0,0,0,380,137a2.24,2.24,0,0,0,.3-.76,4.8,4.8,0,0,0,.08-.85v-2.87h.56v2.87a4.28,4.28,0,0,1-.13,1.09,2.52,2.52,0,0,1-.41.91,2,2,0,0,1-.74.62,2.34,2.34,0,0,1-1.11.23,2.39,2.39,0,0,1-1.13-.24,2.1,2.1,0,0,1-.74-.64,2.55,2.55,0,0,1-.4-.92,4.57,4.57,0,0,1-.12-1.05v-2.87h.55v2.87a4.14,4.14,0,0,0,.09.87,2.27,2.27,0,0,0,.3.75,1.58,1.58,0,0,0,.56.53A1.82,1.82,0,0,0,378.54,137.74Z" style="fill:#fff"></path><path d="M382.28,138.2v-5.68h2.4a1.5,1.5,0,0,1,.67.16,1.68,1.68,0,0,1,.54.41,1.84,1.84,0,0,1,.34.57,1.64,1.64,0,0,1,.13.65,1.92,1.92,0,0,1-.09.59,2,2,0,0,1-.26.52,1.45,1.45,0,0,1-.4.38,1.42,1.42,0,0,1-.52.21l1.4,2.19h-.64l-1.33-2.09h-1.68v2.09Zm.56-2.59h1.85a.9.9,0,0,0,.46-.11.94.94,0,0,0,.34-.29,1.27,1.27,0,0,0,.23-.41,1.62,1.62,0,0,0,.08-.49,1.33,1.33,0,0,0-.09-.49,1.46,1.46,0,0,0-.25-.42,1.44,1.44,0,0,0-.37-.28,1,1,0,0,0-.44-.1h-1.81Z" style="fill:#fff"></path><path d="M354.32,220.6v-5.68h2.35a1.55,1.55,0,0,1,.68.16,1.76,1.76,0,0,1,.53.41,1.87,1.87,0,0,1,.35.57,1.64,1.64,0,0,1,.13.65,1.89,1.89,0,0,1-.12.67,1.77,1.77,0,0,1-.34.58,1.68,1.68,0,0,1-.51.4,1.5,1.5,0,0,1-.67.15h-1.84v2.09Zm.56-2.59h1.81a.9.9,0,0,0,.46-.11,1,1,0,0,0,.34-.28,1.22,1.22,0,0,0,.23-.42,1.62,1.62,0,0,0,.08-.49,1.39,1.39,0,0,0-.09-.5,1.29,1.29,0,0,0-.25-.41,1.25,1.25,0,0,0-.37-.28,1,1,0,0,0-.44-.1h-1.77Z" style="fill:#fff"></path><path d="M363.77,214.92v5.68h-.55V218h-3.37v2.65h-.56v-5.68h.56v2.53h3.37v-2.53Z" style="fill:#fff"></path><path d="M367.49,220.64a2.45,2.45,0,0,1-1.09-.24,2.57,2.57,0,0,1-.84-.65,2.85,2.85,0,0,1-.55-.92,3.26,3.26,0,0,1-.19-1.07,2.85,2.85,0,0,1,.21-1.08,2.77,2.77,0,0,1,.56-.92,2.68,2.68,0,0,1,.85-.64,2.42,2.42,0,0,1,2.14,0,2.47,2.47,0,0,1,.84.66,3.14,3.14,0,0,1,.54.92,2.91,2.91,0,0,1,.19,1.05,3.1,3.1,0,0,1-.2,1.09,3.29,3.29,0,0,1-.56.92,2.81,2.81,0,0,1-.85.63A2.31,2.31,0,0,1,367.49,220.64Zm-2.11-2.88a2.74,2.74,0,0,0,.15.9,2.61,2.61,0,0,0,.44.76,2,2,0,0,0,.66.52,1.76,1.76,0,0,0,.86.2,1.81,1.81,0,0,0,.87-.21,2.17,2.17,0,0,0,.66-.54,2.69,2.69,0,0,0,.42-.76,2.57,2.57,0,0,0,.15-.87,2.5,2.5,0,0,0-.16-.89,2.53,2.53,0,0,0-.43-.75,2.16,2.16,0,0,0-.67-.53,1.79,1.79,0,0,0-.84-.19,1.87,1.87,0,0,0-.88.2,2.17,2.17,0,0,0-.66.54,2.63,2.63,0,0,0-.57,1.62Z" style="fill:#fff"></path><path d="M375,215.42h-2v5.18h-.56v-5.18h-2v-.5H375Z" style="fill:#fff"></path><path d="M377.85,220.64a2.45,2.45,0,0,1-1.09-.24,2.57,2.57,0,0,1-.84-.65,2.66,2.66,0,0,1-.54-.92,3,3,0,0,1-.2-1.07,2.85,2.85,0,0,1,.21-1.08,2.77,2.77,0,0,1,.56-.92,2.68,2.68,0,0,1,.85-.64,2.42,2.42,0,0,1,2.14,0,2.47,2.47,0,0,1,.84.66,3.14,3.14,0,0,1,.54.92,2.91,2.91,0,0,1,.19,1.05,3.1,3.1,0,0,1-.2,1.09,3.29,3.29,0,0,1-.56.92,2.81,2.81,0,0,1-.85.63A2.31,2.31,0,0,1,377.85,220.64Zm-2.11-2.88a2.74,2.74,0,0,0,.15.9,2.61,2.61,0,0,0,.44.76,2,2,0,0,0,.66.52,1.76,1.76,0,0,0,.86.2,1.81,1.81,0,0,0,.87-.21,2.17,2.17,0,0,0,.66-.54,2.69,2.69,0,0,0,.42-.76,2.57,2.57,0,0,0,.15-.87,2.5,2.5,0,0,0-.16-.89,2.53,2.53,0,0,0-.43-.75,2.16,2.16,0,0,0-.67-.53,1.79,1.79,0,0,0-.84-.19,1.87,1.87,0,0,0-.88.2,2.17,2.17,0,0,0-.66.54,2.63,2.63,0,0,0-.57,1.62Z" style="fill:#fff"></path><polygon points="166.31 111.28 114.73 111.28 114.73 440.35 144.59 440.35 123.75 272.9 166.31 111.28" style="fill:#a6a6a6"></polygon><polygon points="156.38 120.18 139.73 196.58 122.99 272.96 123 272.88 130.78 352.72 138.48 432.56 130.45 352.75 122.5 272.93 122.5 272.89 122.51 272.85 139.4 196.5 156.38 120.18" style="fill:#fff"></polygon><polygon points="116.8 126.93 116.97 192.93 117.05 258.93 116.97 324.93 116.8 390.94 116.64 324.93 116.55 258.93 116.64 192.93 116.8 126.93" style="fill:#fff"></polygon><polygon points="126.44 133.11 122.95 203.25 119.37 273.37 119.38 273.36 121.11 351.5 122.75 429.65 120.77 351.51 118.89 273.37 118.89 273.36 118.89 273.35 122.63 203.23 126.44 133.11" style="fill:#fff"></polygon><polygon points="133.16 424.59 126.75 348.83 120.46 273.06 120.46 273.03 120.46 273.01 129.97 214.02 139.56 155.05 130.28 214.07 120.91 273.08 120.91 273.02 127.1 348.8 133.16 424.59" style="fill:#fff"></polygon><rect x="114.73" y="270.14" width="11.65" height="7.67" transform="translate(241.12 547.95) rotate(180)" style="fill:#c7c7c7"></rect></g><g id="freepik--Balloons--inject-75"><path d="M398.82,320.94C392,350.75,386.77,381,382.11,411.22c-1.32,8.57-2.57,17.16-3.7,25.76,0,.32.45.41.5.09,4.44-30.29,9.3-60.5,15.15-90.56,1.66-8.51,3.36-17,5-25.53C399.11,320.82,398.85,320.77,398.82,320.94Z" style="fill:#fff"></path><path d="M442.24,326.65c-.14,1.57-1.41,2.3-2.18,3.55-.94,1.54-.7,3.57-1.16,5.28a17,17,0,0,1-5.48,8.44,3.77,3.77,0,0,0-1.58,1.83c-.12.34-.18.7-.29,1a6.08,6.08,0,0,1-.9,1.95,9.2,9.2,0,0,1-3.25,2.36,22.89,22.89,0,0,0-4.52,3.28,13.93,13.93,0,0,1-2.48,1.75c-.75,0-.93,2-1.57,2.43s-1.48.4-2.16,1.24c-.4.49-.57,1-1.25,1.22s-.91-.26-1.49-.26c-1.28,0-1.16,1.35-2,1.84-.57.31-1.15.11-1.76.2a10.84,10.84,0,0,0-2.6,1.23,6.94,6.94,0,0,1-1.62.32,5,5,0,0,0-1.94,1.19,10.12,10.12,0,0,1-2.12,1.15,12,12,0,0,1-4.4.75c-1.82,0-2.87,1.1-4.5,1.62a4.56,4.56,0,0,1-3.83-.81c-2.65-1.61-6.49-3.49-7.68-6.53-.32-.82-.4-1.46-1.16-2-.38-.27-.8-.45-1.19-.69a12.4,12.4,0,0,1-1.73-1.24,11.06,11.06,0,0,1-2.9-4.18,13.37,13.37,0,0,0-.49-1.43c-.38-.68-.93-.92-1.44-1.41a14,14,0,0,1-1.3-1.37l-.33-.45a13.44,13.44,0,0,1-1.78-4.33c-.66-2.26-2.87-2.31-4.17-3.95-.83-1.05-.65-2.3-.73-3.55-.1-1.75-1.83-2.51-2-4.18a5.56,5.56,0,0,1,.19-1.52c.23-1.39-.38-2-1-3.13-1.19-2.23.24-5.16.13-7.56a.17.17,0,0,1-.1-.09c-.54-.94-1.29-1.69-1.36-2.82-.09-1.41,1-2.32,1.4-3.59s-.19-2.37.64-3.35c.56-.66,1-.81,1.23-1.68a7.27,7.27,0,0,1,.6-1.57,35.3,35.3,0,0,1,4.77-6,15.88,15.88,0,0,1,6-4.27,4.43,4.43,0,0,1,2.37,0,6.92,6.92,0,0,0,4.36-.64,3.84,3.84,0,0,1,2.69-.67,38.62,38.62,0,0,1,4.06,1.09,9,9,0,0,1,2.86.83,1.18,1.18,0,0,1,.3.29,2.2,2.2,0,0,1,.22.7c.39,1.34.74,1.57,2,2.14a12.68,12.68,0,0,1,5.67,5c.59.95.57,2,1.2,2.91a4.63,4.63,0,0,1,.84,2,4.73,4.73,0,0,0,1.28,2.3,5.78,5.78,0,0,1,.66,1.12,6,6,0,0,1,.51,1.93c.79.08,1.13-1.42,1.18-1.6a6,6,0,0,1,1-2,6.23,6.23,0,0,1,3.21-2.24,5,5,0,0,0,2.36-1.2,7.17,7.17,0,0,1,2-1.45,12.52,12.52,0,0,1,4.62-1.11,7.79,7.79,0,0,0,4.06-.21c1.37-.46,3.37.2,4.73.55a13.13,13.13,0,0,1,5,2.3,38.09,38.09,0,0,1,3.38,3.46c1.3,1.29,3.21,1.95,4.32,3.45.88,1.2.56,2.14.53,3.51C440.16,322.24,442.47,324.15,442.24,326.65Z" style="fill:#5CA49F"></path><path d="M442.24,326.65c-.14,1.57-1.41,2.3-2.18,3.55-.94,1.54-.7,3.57-1.16,5.28a17,17,0,0,1-5.48,8.44,3.77,3.77,0,0,0-1.58,1.83c-.12.34-.18.7-.29,1a6.08,6.08,0,0,1-.9,1.95,9.2,9.2,0,0,1-3.25,2.36,22.89,22.89,0,0,0-4.52,3.28,13.93,13.93,0,0,1-2.48,1.75c-.75,0-.93,2-1.57,2.43s-1.48.4-2.16,1.24c-.4.49-.57,1-1.25,1.22s-.91-.26-1.49-.26c-1.28,0-1.16,1.35-2,1.84-.57.31-1.15.11-1.76.2a10.84,10.84,0,0,0-2.6,1.23,6.94,6.94,0,0,1-1.62.32,5,5,0,0,0-1.94,1.19,10.12,10.12,0,0,1-2.12,1.15,12,12,0,0,1-4.4.75c-1.82,0-2.87,1.1-4.5,1.62a4.56,4.56,0,0,1-3.83-.81c-2.65-1.61-6.49-3.49-7.68-6.53-.32-.82-.4-1.46-1.16-2-.38-.27-.8-.45-1.19-.69a12.4,12.4,0,0,1-1.73-1.24,11.06,11.06,0,0,1-2.9-4.18,13.37,13.37,0,0,0-.49-1.43c-.38-.68-.93-.92-1.44-1.41a14,14,0,0,1-1.3-1.37l-.33-.45a13.44,13.44,0,0,1-1.78-4.33c-.66-2.26-2.87-2.31-4.17-3.95-.83-1.05-.65-2.3-.73-3.55-.1-1.75-1.83-2.51-2-4.18a5.56,5.56,0,0,1,.19-1.52c.23-1.39-.38-2-1-3.13-1.19-2.23.24-5.16.13-7.56a.17.17,0,0,1-.1-.09c-.54-.94-1.29-1.69-1.36-2.82-.09-1.41,1-2.32,1.4-3.59s-.19-2.37.64-3.35c.56-.66,1-.81,1.23-1.68a7.27,7.27,0,0,1,.6-1.57,35.3,35.3,0,0,1,4.77-6,15.88,15.88,0,0,1,6-4.27,4.43,4.43,0,0,1,2.37,0,6.92,6.92,0,0,0,4.36-.64,3.84,3.84,0,0,1,2.69-.67,38.62,38.62,0,0,1,4.06,1.09,9,9,0,0,1,2.86.83,1.18,1.18,0,0,1,.3.29,2.2,2.2,0,0,1,.22.7c.39,1.34.74,1.57,2,2.14a12.68,12.68,0,0,1,5.67,5c.59.95.57,2,1.2,2.91a4.63,4.63,0,0,1,.84,2,4.73,4.73,0,0,0,1.28,2.3,5.78,5.78,0,0,1,.66,1.12,6,6,0,0,1,.51,1.93c.79.08,1.13-1.42,1.18-1.6a6,6,0,0,1,1-2,6.23,6.23,0,0,1,3.21-2.24,5,5,0,0,0,2.36-1.2,7.17,7.17,0,0,1,2-1.45,12.52,12.52,0,0,1,4.62-1.11,7.79,7.79,0,0,0,4.06-.21c1.37-.46,3.37.2,4.73.55a13.13,13.13,0,0,1,5,2.3,38.09,38.09,0,0,1,3.38,3.46c1.3,1.29,3.21,1.95,4.32,3.45.88,1.2.56,2.14.53,3.51C440.16,322.24,442.47,324.15,442.24,326.65Z" style="fill:#fff;opacity:0.30000000000000004"></path><path d="M403.08,317.94c-1.19.07-2-10.65-12.09-17.11s-23.54,1.1-27.05,11.82.21,31.37,26.66,53.79c1.82,1.54,36-9.4,46.2-30.4,9.45-19.38-9.52-30.82-18.9-27.86C406.74,311.7,404.7,317.86,403.08,317.94Z" style="fill:#5CA49F"></path><path d="M400.11,318.67c-.68-1.22-5.3-11.4-10.08-14.74s-12.41-2.55-13.27-2-1.79,2.5-1.33,3.6,9.18,4.38,10,5.82,9.22,8.32,11.32,9.49S401.68,321.45,400.11,318.67Z" style="fill:#fff;opacity:0.30000000000000004"></path><path d="M405.94,319.82c-.87-1.26,8.94-7.79,12.65-8.54s10.7.31,12.12,2.34-3.33,5.83-5,5.83-8.18-1.41-10.4-.31S407.46,322,405.94,319.82Z" style="fill:#fff;opacity:0.30000000000000004"></path><path d="M379.29,303c-1.14,1.77,6.2,3.36,7.76,5s9.5,10.15,10.23,9-4.13-9.57-8.27-12.08S379.75,302.22,379.29,303Z" style="fill:#fffdfd;opacity:0.30000000000000004"></path><path d="M426.56,312.32c-1.46-.52-7.05-.74-7.75.36s6,3,7.28,3.28,3.38-.7,3.44-1.36S428.25,312.92,426.56,312.32Z" style="fill:#fffdfd;opacity:0.30000000000000004"></path><path d="M436.22,333c-.22-.92-13.26,3.31-17.66,9.09-1.72,2.28-10.33,1.23-14.9,4.16-5.44,3.48-5.93,11.52-4.74,14.3s17.7-6.42,24.17-11.44S436.65,334.81,436.22,333Z" style="fill:#fffdfd;opacity:0.1"></path><path d="M388.38,363.91c.18.18-3.83,7-3.46,7.93s6.73,3.16,8.3,2.3c.51-.28,1.33-7.43,1.46-8.07S388.38,363.91,388.38,363.91Z" style="fill:#5CA49F"></path><g style="opacity:0.30000000000000004"><path d="M371.13,308.82a4.71,4.71,0,0,0-1.45-.77,7.68,7.68,0,0,0-1.74-.56c-.22,0-.28.27-.13.38a9,9,0,0,0,1.56.75,4.68,4.68,0,0,0,1.63.46C371.13,309.09,371.23,308.91,371.13,308.82Z" style="fill:#fffdfd"></path><path d="M369,310.12a2,2,0,0,0-1-.1l-1.23.06a.19.19,0,0,0,0,.37c.41,0,.82.06,1.23.07a2.14,2.14,0,0,0,1-.09A.18.18,0,0,0,369,310.12Z" style="fill:#fffdfd"></path><path d="M368.45,311.47a5,5,0,0,0-2.51.37.1.1,0,0,0,0,.2,7.23,7.23,0,0,1,1.31-.17,4.83,4.83,0,0,0,1.14-.08A.17.17,0,0,0,368.45,311.47Z" style="fill:#fffdfd"></path><path d="M387.93,356.25c.12-.18-.16-.35-.29-.18a15.42,15.42,0,0,0-1.88,2.87c-.11.27.29.42.45.21C386.85,358.24,387.33,357.2,387.93,356.25Z" style="fill:#fffdfd"></path><path d="M388,358.76a4.7,4.7,0,0,0-1.43,1.77.21.21,0,0,0,.34.22,5,5,0,0,0,.61-.77,10.9,10.9,0,0,1,.75-.93C388.39,358.87,388.15,358.59,388,358.76Z" style="fill:#fffdfd"></path><path d="M389.61,359.19c.06-.14-.17-.25-.23-.11a11.07,11.07,0,0,0-1.27,3.3c0,.23.29.24.37.07C389,361.41,389.17,360.24,389.61,359.19Z" style="fill:#fffdfd"></path><path d="M390.71,362a.19.19,0,0,0-.37-.12,7.28,7.28,0,0,0-.61,1.67c0,.21.28.29.39.12A7.36,7.36,0,0,0,390.71,362Z" style="fill:#fffdfd"></path><path d="M393.42,361.51c0-.09-.13-.1-.15,0a11.44,11.44,0,0,1-.38,1.92,9.71,9.71,0,0,0-.42,1.49c0,.12.16.17.23.07A8.49,8.49,0,0,0,393.42,361.51Z" style="fill:#fffdfd"></path><path d="M367.67,315.49a10.8,10.8,0,0,0-1.39.08c-.46,0-.93,0-1.39,0a.17.17,0,0,0,0,.33,6.24,6.24,0,0,0,2.82-.05A.19.19,0,0,0,367.67,315.49Z" style="fill:#fffdfd"></path><path d="M366.07,319a5.31,5.31,0,0,0-.89.13,5.8,5.8,0,0,0-.92.2.13.13,0,0,0,0,.25c.31,0,.62,0,.94,0a6.76,6.76,0,0,0,.89-.11A.22.22,0,0,0,366.07,319Z" style="fill:#fffdfd"></path><path d="M366.65,322.39a2.77,2.77,0,0,0-1.17.14c-.43.08-.87.14-1.31.18-.21,0-.17.34,0,.36a8.44,8.44,0,0,0,1.33,0,2,2,0,0,0,1.2-.33A.2.2,0,0,0,366.65,322.39Z" style="fill:#fffdfd"></path><path d="M366.54,324.55a4.38,4.38,0,0,0-1.71,1.07c-.12.11,0,.28.17.19a14.11,14.11,0,0,1,1.67-.89A.2.2,0,0,0,366.54,324.55Z" style="fill:#fffdfd"></path><path d="M384.66,353.1a7.71,7.71,0,0,0-1.85.95,18.14,18.14,0,0,0-1.74,1.16c-.14.11,0,.32.17.25.66-.31,1.29-.66,1.92-1a8.12,8.12,0,0,0,1.67-1A.19.19,0,0,0,384.66,353.1Z" style="fill:#fffdfd"></path><path d="M385.14,354.47c.05-.1-.08-.18-.16-.14a3.09,3.09,0,0,0-.9.79l-.93,1a.11.11,0,0,0,.15.17C383.91,355.79,384.83,355.21,385.14,354.47Z" style="fill:#fffdfd"></path><path d="M370.45,333.56a9.2,9.2,0,0,0-2.84,1c-.17.07-.07.35.11.31a9.31,9.31,0,0,0,2.84-1C370.68,333.77,370.59,333.55,370.45,333.56Z" style="fill:#fffdfd"></path><path d="M372.69,339.12a3.32,3.32,0,0,0-1.38.32,9.34,9.34,0,0,0-1.36.63c-.14.08-.07.33.1.28.46-.15.93-.26,1.41-.38a5.65,5.65,0,0,0,1.34-.36A.26.26,0,0,0,372.69,339.12Z" style="fill:#fffdfd"></path><path d="M373.48,340.63a2.3,2.3,0,0,0-1.08.43,6.33,6.33,0,0,0-1,.72.09.09,0,0,0,.1.14c.35-.19.71-.36,1.08-.52a4.06,4.06,0,0,0,1-.45A.19.19,0,0,0,373.48,340.63Z" style="fill:#fffdfd"></path><path d="M379.2,348.33c-.34.3-.7.57-1,.87a3.55,3.55,0,0,0-.85.88.22.22,0,0,0,.28.31c.74-.36,1.26-1.25,1.82-1.82C379.55,348.42,379.35,348.2,379.2,348.33Z" style="fill:#fffdfd"></path><path d="M380.89,350.65c-.48.21-1,.4-1.45.6a4.75,4.75,0,0,0-1.28.62c-.16.12,0,.36.16.33a4.74,4.74,0,0,0,1.3-.58l1.4-.71C381.19,350.83,381.06,350.57,380.89,350.65Z" style="fill:#fffdfd"></path><path d="M381.05,351.85a4.59,4.59,0,0,0-1.4,1,.13.13,0,0,0,.14.2,4.65,4.65,0,0,0,1.46-.91C381.4,352,381.22,351.75,381.05,351.85Z" style="fill:#fffdfd"></path><path d="M372.87,306.75a2.41,2.41,0,0,0-.6-1.05c-.3-.39-.63-.76-.95-1.13-.13-.14-.38,0-.28.19.25.42.5.84.78,1.25a2.37,2.37,0,0,0,.82.9A.15.15,0,0,0,372.87,306.75Z" style="fill:#fffdfd"></path><path d="M401,310.66a.11.11,0,1,0-.22,0,11.49,11.49,0,0,1-1.51,4.18c-.08.17.12.4.28.24A6.54,6.54,0,0,0,401,310.66Z" style="fill:#fffdfd"></path><path d="M402.37,314.13a.16.16,0,0,0-.27-.17,7.6,7.6,0,0,1-.87,1c-.25.25-.55.47-.78.75-.08.09,0,.26.16.22A3.57,3.57,0,0,0,402.37,314.13Z" style="fill:#fffdfd"></path><path d="M428.71,308.93a10.44,10.44,0,0,0-1.34,1.7.15.15,0,0,0,.26.16c.4-.58.78-1.18,1.23-1.73C428.93,309,428.79,308.86,428.71,308.93Z" style="fill:#fffdfd"></path><path d="M430.42,309.5a5.78,5.78,0,0,0-1.76,1.54c-.15.2.17.41.32.21a6.73,6.73,0,0,1,1.57-1.49C430.71,309.66,430.59,309.4,430.42,309.5Z" style="fill:#fffdfd"></path><path d="M439.69,320.73c0-.14-.19-.21-.23-.07a8.27,8.27,0,0,1-2.35,3.9.19.19,0,0,0,.25.29A6.38,6.38,0,0,0,439.69,320.73Z" style="fill:#fffdfd"></path><path d="M440,323.58a3.74,3.74,0,0,1-.75.79,8.84,8.84,0,0,0-.77.6c-.09.09,0,.3.13.25a3.38,3.38,0,0,0,1.55-1.53A.1.1,0,0,0,440,323.58Z" style="fill:#fffdfd"></path><path d="M439.49,329.48a3.91,3.91,0,0,1-2.28.82c-.21,0-.16.33,0,.36a2.86,2.86,0,0,0,2.37-1.05C439.68,329.53,439.58,329.4,439.49,329.48Z" style="fill:#fffdfd"></path></g><path d="M394.58,369.29l.27-.06c.22-.06.24-.41,0-.42l-1.24-.06a10,10,0,0,0,1.32-.19.2.2,0,0,0-.07-.39,11.67,11.67,0,0,1-4.35-.56c-1.12-.38-2.08-1.11-3.19-1.46-.1,0-.22.07-.16.17a3.88,3.88,0,0,0,.7.86l-.95-.46a.15.15,0,0,0-.16.23,7.14,7.14,0,0,0,.75.7l-.91-.39a.14.14,0,0,0-.15.21c1.69,2,5.76,3,8.23,2.27C394.92,369.66,394.86,369.25,394.58,369.29Z" style="fill:#fff"></path><path d="M398.18,366.59c-.44-1.44-2.34-1.26-3.48-1a7.66,7.66,0,0,0-3.93,2.09,9,9,0,0,0-2.91-4.41c-.93-.73-2.51-1.26-3.34-.08-1.77,2.49,3.65,5,5.84,5a9.55,9.55,0,0,0,5.9.81C397.34,368.75,398.56,367.86,398.18,366.59Zm-10.89.26a8.45,8.45,0,0,1-1.45-.92c-.89-.75-1.89-2.61,0-2.93,2.12-.35,4.1,3.16,4.82,4.79l-.06.08h-.16l-.07,0a.16.16,0,0,0-.15,0A8.65,8.65,0,0,1,387.29,366.85Zm9.27,1.66a6.46,6.46,0,0,1-2.55.22,11.78,11.78,0,0,1-3.16-.71,0,0,0,0,0,0,0c1.62-1.15,3.58-2.47,5.67-2.15C398.15,366.07,397.84,368.05,396.56,368.51Z" style="fill:#fff"></path><path d="M391.08,297.93a32.83,32.83,0,0,1,.49,3.28,39.86,39.86,0,0,1,.22,4.24c0,.6,0,1.2,0,1.8-.07,1.68-.23,3.38-.46,5.05-.18,1.28-.41,2.55-.68,3.82a68,68,0,0,1-2.85,9.86c-3,8.09-7.77,16.36-14.58,21.93-.63.52-1.28,1-1.95,1.48l-.33-.45a13.44,13.44,0,0,1-1.78-4.33c-.66-2.26-2.87-2.31-4.17-3.95-.83-1.05-.65-2.3-.73-3.55-.1-1.75-1.83-2.51-2-4.18a5.56,5.56,0,0,1,.19-1.52c.23-1.39-.38-2-1-3.13-1.19-2.23.24-5.16.13-7.56a.17.17,0,0,1-.1-.09c-.54-.94-1.29-1.69-1.36-2.82-.09-1.41,1-2.32,1.4-3.59s-.19-2.37.64-3.35c.56-.66,1-.81,1.23-1.68a7.27,7.27,0,0,1,.6-1.57,35.3,35.3,0,0,1,4.77-6,15.88,15.88,0,0,1,6-4.27,4.43,4.43,0,0,1,2.37,0,6.92,6.92,0,0,0,4.36-.64,3.84,3.84,0,0,1,2.69-.67,38.62,38.62,0,0,1,4.06,1.09A9,9,0,0,1,391.08,297.93Z" style="opacity:0.1"></path><path d="M365.72,335.39c-.88-9.7-1.51-19.42-2.42-29.12,0-.23-.38-.25-.37,0,.68,17.38,2.48,34.78,4.3,52.07s4,34.42,6.47,51.56c1.42,9.76,2.93,19.51,4.62,29.22.06.34.58.21.52-.13C373.35,404.58,368.87,370.08,365.72,335.39Z" style="fill:#fff"></path><path d="M392.31,301a6.16,6.16,0,0,1,.06,2.14,9.26,9.26,0,0,1-1.86,3.57,23.31,23.31,0,0,0-2.58,4.95,14.21,14.21,0,0,1-1.43,2.68c-.67.34,0,2.16-.32,2.87s-1.14,1-1.38,2.07c-.14.62-.05,1.19-.57,1.65s-.93.18-1.46.44c-1.15.55-.43,1.73-1,2.55-.37.54-1,.62-1.48,1-.8.55-1.17,1.54-1.78,2.26a6.11,6.11,0,0,1-1.31,1c-.65.48-.8,1.2-1.2,1.94a11.17,11.17,0,0,1-1.38,2,11.91,11.91,0,0,1-3.61,2.65c-1.61.83-2.07,2.27-3.3,3.45a4.56,4.56,0,0,1-3.79,1c-3.09-.26-7.37-.22-9.78-2.41-.66-.59-1-1.13-1.95-1.28-.44-.07-.91-.05-1.36-.09a11.49,11.49,0,0,1-2.1-.34,11,11,0,0,1-4.46-2.44,11.94,11.94,0,0,0-1.09-1.05,5.65,5.65,0,0,0-1.91-.63A12,12,0,0,1,339,330a13.47,13.47,0,0,1-3.52-3.08c-1.59-1.73-3.6-.78-5.49-1.67-1.22-.57-1.62-1.76-2.24-2.86-.87-1.52-2.76-1.42-3.66-2.83a5.47,5.47,0,0,1-.52-1.45c-.41-1.35-1.24-1.64-2.27-2.37-2.06-1.45-2.09-4.71-3.26-6.82a.17.17,0,0,1-.13,0c-.9-.6-1.91-.93-2.48-1.91-.7-1.22-.11-2.54-.35-3.84s-1.23-2-.92-3.28a4.3,4.3,0,0,0,.35-2.06,7.12,7.12,0,0,1-.17-1.67,35.26,35.26,0,0,1,1.59-7.51,15.87,15.87,0,0,1,3.46-6.5A4.39,4.39,0,0,1,321.5,281a6.8,6.8,0,0,0,3.61-2.52,3.8,3.8,0,0,1,2.11-1.79,38.59,38.59,0,0,1,4.12-.85c.89-.18,2.43-.87,3.33-.41.24.13.33.35.51.54.95,1,1.36,1.06,2.79,1a12.74,12.74,0,0,1,7.31,1.95c1,.58,1.39,1.49,2.38,2.07a4.7,4.7,0,0,1,1.63,1.4,4.81,4.81,0,0,0,2.17,1.48,5.67,5.67,0,0,1,1.09.71,5.89,5.89,0,0,1,1.32,1.5c.75-.29.38-1.78.34-2a6,6,0,0,1,0-2.23,6.27,6.27,0,0,1,1.87-3.44,4.86,4.86,0,0,0,1.57-2.13,7.21,7.21,0,0,1,1.14-2.18,12.46,12.46,0,0,1,3.64-3.06,7.8,7.8,0,0,0,3.54-2c1-1,3.1-1.31,4.48-1.62a13.34,13.34,0,0,1,5.52-.18,38.44,38.44,0,0,1,4.56,1.59c1.75.57,3.75.31,5.41,1.16,1.32.68,1.46,1.66,2.05,2.9,1.06,2.23,4,2.9,4.89,5.24.57,1.47-.23,2.7-.36,4.16-.16,1.79,1,3.51,1.32,5.24a16.94,16.94,0,0,1-1.14,10,3.89,3.89,0,0,0-.6,2.35C392.14,300.27,392.25,300.62,392.31,301Z" style="fill:#5CA49F"></path><path d="M392.31,301a6.16,6.16,0,0,1,.06,2.14,9.26,9.26,0,0,1-1.86,3.57,23.31,23.31,0,0,0-2.58,4.95,14.21,14.21,0,0,1-1.43,2.68c-.67.34,0,2.16-.32,2.87s-1.14,1-1.38,2.07c-.14.62-.05,1.19-.57,1.65s-.93.18-1.46.44c-1.15.55-.43,1.73-1,2.55-.37.54-1,.62-1.48,1-.8.55-1.17,1.54-1.78,2.26a6.11,6.11,0,0,1-1.31,1c-.65.48-.8,1.2-1.2,1.94a11.17,11.17,0,0,1-1.38,2,11.91,11.91,0,0,1-3.61,2.65c-1.61.83-2.07,2.27-3.3,3.45a4.56,4.56,0,0,1-3.79,1c-3.09-.26-7.37-.22-9.78-2.41-.66-.59-1-1.13-1.95-1.28-.44-.07-.91-.05-1.36-.09a11.49,11.49,0,0,1-2.1-.34,11,11,0,0,1-4.46-2.44,11.94,11.94,0,0,0-1.09-1.05,5.65,5.65,0,0,0-1.91-.63A12,12,0,0,1,339,330a13.47,13.47,0,0,1-3.52-3.08c-1.59-1.73-3.6-.78-5.49-1.67-1.22-.57-1.62-1.76-2.24-2.86-.87-1.52-2.76-1.42-3.66-2.83a5.47,5.47,0,0,1-.52-1.45c-.41-1.35-1.24-1.64-2.27-2.37-2.06-1.45-2.09-4.71-3.26-6.82a.17.17,0,0,1-.13,0c-.9-.6-1.91-.93-2.48-1.91-.7-1.22-.11-2.54-.35-3.84s-1.23-2-.92-3.28a4.3,4.3,0,0,0,.35-2.06,7.12,7.12,0,0,1-.17-1.67,35.26,35.26,0,0,1,1.59-7.51,15.87,15.87,0,0,1,3.46-6.5A4.39,4.39,0,0,1,321.5,281a6.8,6.8,0,0,0,3.61-2.52,3.8,3.8,0,0,1,2.11-1.79,38.59,38.59,0,0,1,4.12-.85c.89-.18,2.43-.87,3.33-.41.24.13.33.35.51.54.95,1,1.36,1.06,2.79,1a12.74,12.74,0,0,1,7.31,1.95c1,.58,1.39,1.49,2.38,2.07a4.7,4.7,0,0,1,1.63,1.4,4.81,4.81,0,0,0,2.17,1.48,5.67,5.67,0,0,1,1.09.71,5.89,5.89,0,0,1,1.32,1.5c.75-.29.38-1.78.34-2a6,6,0,0,1,0-2.23,6.27,6.27,0,0,1,1.87-3.44,4.86,4.86,0,0,0,1.57-2.13,7.21,7.21,0,0,1,1.14-2.18,12.46,12.46,0,0,1,3.64-3.06,7.8,7.8,0,0,0,3.54-2c1-1,3.1-1.31,4.48-1.62a13.34,13.34,0,0,1,5.52-.18,38.44,38.44,0,0,1,4.56,1.59c1.75.57,3.75.31,5.41,1.16,1.32.68,1.46,1.66,2.05,2.9,1.06,2.23,4,2.9,4.89,5.24.57,1.47-.23,2.7-.36,4.16-.16,1.79,1,3.51,1.32,5.24a16.94,16.94,0,0,1-1.14,10,3.89,3.89,0,0,0-.6,2.35C392.14,300.27,392.25,300.62,392.31,301Z" style="fill:#fff;opacity:0.30000000000000004"></path><path d="M354,287.87c-1,.59-6.56-8.63-18.46-9.91s-20.57,11.5-18.93,22.66,14.2,28,47.88,36.22c2.31.57,28-24.47,27.76-47.83-.2-21.57-22.28-23.33-29.36-16.49C354.43,280.65,355.36,287.08,354,287.87Z" style="fill:#5CA49F"></path><path d="M351.61,289.85c-1.15-.79-9.83-7.84-15.6-8.69s-12.24,3.27-12.78,4.11a3.67,3.67,0,0,0,.41,3.81c.9.77,10.18-.18,11.58.72s12,3.33,14.37,3.44S354.26,291.64,351.61,289.85Z" style="fill:#fff;opacity:0.30000000000000004"></path><path d="M357.34,288.27c-1.34-.73,4.52-11,7.51-13.28s9.71-4.5,11.89-3.33-.38,6.71-1.92,7.48-7.95,2.39-9.44,4.36S359.68,289.55,357.34,288.27Z" style="fill:#fff;opacity:0.30000000000000004"></path><path d="M326,285.08c-.22,2.1,7.05.24,9.17,1s13,4.83,13.19,3.51-8-6.72-12.8-7.12S326.06,284.22,326,285.08Z" style="fill:#fffdfd;opacity:0.30000000000000004"></path><path d="M372.44,272.36c-1.53.18-6.63,2.48-6.77,3.78s6.72,0,8-.31,2.71-2.15,2.46-2.76S374.23,272.14,372.44,272.36Z" style="fill:#fffdfd;opacity:0.30000000000000004"></path><path d="M390.33,286.56c-.61-.73-10.39,8.88-11.74,16-.53,2.8-8.7,5.71-11.48,10.37-3.31,5.54-.16,12.95,2.15,14.91s13-13.65,16.51-21S391.51,288,390.33,286.56Z" style="fill:#fffdfd;opacity:0.1"></path><path d="M361.33,335.57c.23.08-.29,8,.44,8.63s7.43-.18,8.45-1.64c.33-.48-2.13-7.24-2.29-7.87S361.33,335.57,361.33,335.57Z" style="fill:#5CA49F"></path><g style="opacity:0.30000000000000004"><path d="M321.28,294a5,5,0,0,0-1.64-.05,8.63,8.63,0,0,0-1.81.28c-.21.07-.12.37.06.4a8.34,8.34,0,0,0,1.73,0,5.25,5.25,0,0,0,1.67-.31C321.4,294.22,321.42,294,321.28,294Z" style="fill:#fffdfd"></path><path d="M320,296.09a2,2,0,0,0-1,.37c-.37.19-.73.4-1.08.61a.18.18,0,0,0,.15.33c.38-.15.76-.31,1.13-.48a2.16,2.16,0,0,0,.89-.55A.18.18,0,0,0,320,296.09Z" style="fill:#fffdfd"></path><path d="M320.07,297.55A4.92,4.92,0,0,0,318,299c-.1.09,0,.25.13.16a6.69,6.69,0,0,1,1.09-.73,5.51,5.51,0,0,0,1-.59A.17.17,0,0,0,320.07,297.55Z" style="fill:#fffdfd"></path><path d="M357.5,328.92a.17.17,0,0,0-.34,0,15.8,15.8,0,0,0-.4,3.41c0,.29.45.25.49,0C357.42,331.18,357.39,330,357.5,328.92Z" style="fill:#fffdfd"></path><path d="M358.65,331.15a4.81,4.81,0,0,0-.5,2.22.22.22,0,0,0,.41,0,4.34,4.34,0,0,0,.2-1,11.63,11.63,0,0,1,.26-1.17C359.08,331.05,358.74,330.91,358.65,331.15Z" style="fill:#fffdfd"></path><path d="M360.31,330.79c0-.14-.25-.14-.25,0a10.68,10.68,0,0,0,.34,3.52c.08.22.37.09.36-.11C360.72,333.07,360.39,331.94,360.31,330.79Z" style="fill:#fffdfd"></path><path d="M362.55,332.8a.2.2,0,0,0-.39.06,6.89,6.89,0,0,0,.2,1.76.21.21,0,0,0,.4-.06A7.5,7.5,0,0,0,362.55,332.8Z" style="fill:#fffdfd"></path><path d="M364.76,331.17c0-.09-.16,0-.13.06a12.14,12.14,0,0,1,.51,1.88,9.49,9.49,0,0,0,.29,1.52.12.12,0,0,0,.23,0A8.49,8.49,0,0,0,364.76,331.17Z" style="fill:#fffdfd"></path><path d="M321.17,301.49a12.13,12.13,0,0,0-1.21.69c-.4.24-.81.45-1.23.65a.16.16,0,0,0,.13.3,6.5,6.5,0,0,0,2.51-1.31C321.51,301.67,321.38,301.4,321.17,301.49Z" style="fill:#fffdfd"></path><path d="M321.3,305.34a6.09,6.09,0,0,0-.74.51,6.94,6.94,0,0,0-.74.6c-.09.09,0,.27.13.21a8.36,8.36,0,0,0,.83-.46,6,6,0,0,0,.75-.49C321.71,305.55,321.53,305.22,321.3,305.34Z" style="fill:#fffdfd"></path><path d="M323.34,308.12c-.38.07-.69.43-1,.65s-.72.51-1.09.75c-.18.11,0,.38.19.3a7,7,0,0,0,1.19-.6c.32-.2.79-.45.92-.83A.2.2,0,0,0,323.34,308.12Z" style="fill:#fffdfd"></path><path d="M324.21,310.11a4.26,4.26,0,0,0-1.06,1.72.12.12,0,0,0,.23.09,18.85,18.85,0,0,1,1.1-1.55C324.61,310.2,324.38,310,324.21,310.11Z" style="fill:#fffdfd"></path><path d="M353.17,327.56a7.55,7.55,0,0,0-1.24,1.67,19.12,19.12,0,0,0-1,1.81c-.08.16.16.28.26.15.45-.57.86-1.16,1.27-1.75a8.71,8.71,0,0,0,1-1.66C353.53,327.61,353.31,327.43,353.17,327.56Z" style="fill:#fffdfd"></path><path d="M354.21,328.57c0-.11-.15-.13-.21-.05a3.32,3.32,0,0,0-.45,1.1c-.14.43-.26.87-.39,1.3a.11.11,0,0,0,.2.08A5.63,5.63,0,0,0,354.21,328.57Z" style="fill:#fffdfd"></path><path d="M331.73,316.42a8.94,8.94,0,0,0-2.11,2.14c-.12.14.09.35.23.22a8.75,8.75,0,0,0,2.1-2.15C332,316.51,331.85,316.35,331.73,316.42Z" style="fill:#fffdfd"></path><path d="M336.22,320.4a3.28,3.28,0,0,0-1.1.9,8.68,8.68,0,0,0-.93,1.17c-.1.13.08.32.21.2.35-.34.72-.65,1.09-1a5.71,5.71,0,0,0,1-.92A.26.26,0,0,0,336.22,320.4Z" style="fill:#fffdfd"></path><path d="M337.6,321.39a2.48,2.48,0,0,0-.78.86,6.75,6.75,0,0,0-.57,1.1.08.08,0,0,0,.14.08c.24-.32.49-.64.74-.94a3.82,3.82,0,0,0,.71-.86A.19.19,0,0,0,337.6,321.39Z" style="fill:#fffdfd"></path><path d="M346.15,325.73c-.16.42-.38.82-.54,1.24a3.48,3.48,0,0,0-.37,1.17.22.22,0,0,0,.39.15,7.9,7.9,0,0,0,.82-2.44A.16.16,0,0,0,346.15,325.73Z" style="fill:#fffdfd"></path><path d="M348.69,327.05c-.33.4-.68.79-1,1.19a4.69,4.69,0,0,0-.87,1.12c-.08.18.15.33.3.22a4.81,4.81,0,0,0,.9-1.1c.31-.42.61-.84.93-1.26C349.05,327.07,348.81,326.9,348.69,327.05Z" style="fill:#fffdfd"></path><path d="M349.38,328.05a4.58,4.58,0,0,0-.82,1.5.13.13,0,0,0,.22.12,4.88,4.88,0,0,0,.9-1.46C349.76,328,349.49,327.89,349.38,328.05Z" style="fill:#fffdfd"></path><path d="M321.92,291.35a2.33,2.33,0,0,0-1-.67c-.44-.21-.9-.4-1.36-.58a.17.17,0,0,0-.16.29c.41.26.83.52,1.26.77a2.5,2.5,0,0,0,1.13.44A.16.16,0,0,0,321.92,291.35Z" style="fill:#fffdfd"></path><path d="M348.82,282.29c-.05-.13-.25,0-.2.09a11.37,11.37,0,0,1,.52,4.42c0,.19.29.3.35.09A6.53,6.53,0,0,0,348.82,282.29Z" style="fill:#fffdfd"></path><path d="M351.61,284.78a.16.16,0,0,0-.32,0A8.11,8.11,0,0,1,351,286c-.12.34-.28.66-.37,1a.15.15,0,0,0,.24.13A3.55,3.55,0,0,0,351.61,284.78Z" style="fill:#fffdfd"></path><path d="M372.86,268.37a10,10,0,0,0-.45,2.11.16.16,0,0,0,.31,0c.1-.7.17-1.4.32-2.1C373.07,268.31,372.89,268.26,372.86,268.37Z" style="fill:#fffdfd"></path><path d="M374.64,268.11a5.74,5.74,0,0,0-.89,2.17c0,.24.34.28.39,0a6.33,6.33,0,0,1,.73-2C375,268.12,374.74,268,374.64,268.11Z" style="fill:#fffdfd"></path><path d="M387.94,274c0-.14-.26-.11-.22,0a8.47,8.47,0,0,1-.37,4.54.19.19,0,0,0,.36.14A6.36,6.36,0,0,0,387.94,274Z" style="fill:#fffdfd"></path><path d="M389.47,276.45a5.44,5.44,0,0,1-.32,1,7.1,7.1,0,0,0-.42.88c0,.12.11.28.22.17a3.41,3.41,0,0,0,.71-2.07A.1.1,0,0,0,389.47,276.45Z" style="fill:#fffdfd"></path><path d="M391.68,281.93a3.87,3.87,0,0,1-1.68,1.76c-.18.12,0,.37.19.3a2.82,2.82,0,0,0,1.65-2C391.87,281.89,391.72,281.83,391.68,281.93Z" style="fill:#fffdfd"></path></g><path d="M369.07,337.64l.22-.19c.16-.15,0-.46-.21-.36l-1.14.49a9.25,9.25,0,0,0,1.1-.76c.2-.16,0-.43-.24-.31a11.48,11.48,0,0,1-4.14,1.44c-1.17.16-2.36-.06-3.51.12a.13.13,0,0,0-.07.23,4,4,0,0,0,1,.45h-1a.16.16,0,0,0,0,.29,6.47,6.47,0,0,0,1,.28l-1,.06a.13.13,0,0,0,0,.25c2.39,1,6.47.09,8.37-1.65A.22.22,0,0,0,369.07,337.64Z" style="fill:#fff"></path><path d="M371.29,333.42c-1-1.09-2.66-.08-3.56.65a7.66,7.66,0,0,0-2.58,3.63,9,9,0,0,0-4.58-2.65c-1.16-.24-2.8,0-3,1.43-.47,3,5.52,2.87,7.46,1.86a9.45,9.45,0,0,0,5.64-1.91C371.51,335.73,372.2,334.39,371.29,333.42Zm-9.62,5.09a7.52,7.52,0,0,1-1.71-.17c-1.13-.27-2.86-1.49-1.31-2.62,1.74-1.26,5.08,1,6.45,2.13,0,0,0,.07,0,.1l-.14.08h-.07a.14.14,0,0,0-.12.08A8.59,8.59,0,0,1,361.67,338.51Zm9-2.65a6.6,6.6,0,0,1-2.19,1.34,11.75,11.75,0,0,1-3.14.78l0-.05c.94-1.75,2.1-3.81,4.11-4.46C371,333,371.64,334.87,370.71,335.86Z" style="fill:#fff"></path><polygon points="373.85 427.77 382.98 427.77 384.88 444.02 371.95 444.02 373.85 427.77" style="fill:#263238"></polygon></g></svg>